<svg width="86" height="86" viewBox="0 0 86 86" fill="none" xmlns="http://www.w3.org/2000/svg">
<circle cx="43.0002" cy="43" r="42.32" fill="white"/>
<g clip-path="url(#clip0_923_73423)">
<path d="M20.0518 63.2395H29.7279V30.391H20.0518V63.2395ZM57.7484 29.2532C53.0523 29.2532 48.8505 30.9999 45.87 34.8553V30.283H36.1583V63.24H45.87V45.4177C45.87 41.6513 49.2579 37.9768 53.5015 37.9768C57.7453 37.9768 58.7917 41.6513 58.7917 45.3255V63.2368H68.4678V44.5921C68.4676 31.6412 62.4475 29.2532 57.7484 29.2532ZM24.8446 27.1083C27.5188 27.1083 29.6892 24.8977 29.6892 22.174C29.6892 19.4503 27.5188 17.24 24.8446 17.24C22.1704 17.24 20 19.4506 20 22.1743C20 24.898 22.1704 27.1083 24.8446 27.1083Z" fill="black"/>
</g>
<defs>
<clipPath id="clip0_923_73423">
<rect width="49.68" height="46" fill="white" transform="translate(20 17.24)"/>
</clipPath>
</defs>
</svg>
