<svg width="98" height="37" viewBox="0 0 98 37" fill="none" xmlns="http://www.w3.org/2000/svg">
<path d="M48.5184 20.2416V22.6915H36.9766V6.95703H48.211V9.40693H39.8347V13.498H47.2656V15.9032H39.8347V20.2416H48.5184Z" fill="white"/>
<path d="M50.4102 15.2734H56.4556V17.6128H50.4102V15.2734Z" fill="white"/>
<path d="M62.7502 21.8716C61.4974 21.1746 60.5155 20.2125 59.8046 18.9839C59.0937 17.7552 58.7383 16.3686 58.7383 14.8257C58.7383 13.2828 59.0966 11.8963 59.8163 10.6676C60.5345 9.43894 61.5207 8.47685 62.7735 7.77986C64.0263 7.08287 65.4306 6.73438 66.9835 6.73438C68.2435 6.73438 69.3944 6.95926 70.4359 7.40903C71.4761 7.85879 72.3559 8.51111 73.0741 9.36447L71.227 11.1397C70.1125 9.91105 68.7432 9.29597 67.116 9.29597C66.0613 9.29597 65.1159 9.53128 64.2797 10.0034C63.4436 10.4755 62.7924 11.1308 62.3233 11.9707C61.8543 12.8107 61.6197 13.7609 61.6197 14.8257C61.6197 15.8906 61.8543 16.8408 62.3233 17.6807C62.7924 18.5207 63.445 19.176 64.2797 19.6481C65.1159 20.1202 66.0599 20.3555 67.116 20.3555C68.7432 20.3555 70.114 19.7345 71.227 18.4894L73.0741 20.287C72.3559 21.1404 71.4731 21.7927 70.4243 22.2424C69.3754 22.6922 68.2217 22.9171 66.9616 22.9171C65.4058 22.9171 64.003 22.5686 62.7502 21.8716Z" fill="white"/>
<path d="M86.1122 17.5886H76.8998C77.0615 18.4733 77.4825 19.1733 78.1642 19.69C78.846 20.2068 79.6923 20.466 80.7033 20.466C81.9925 20.466 83.056 20.0311 83.8907 19.1628L85.3634 20.8934C84.8361 21.5383 84.1689 22.0253 83.3633 22.3544C82.5563 22.6835 81.6487 22.8488 80.6378 22.8488C79.3471 22.8488 78.2123 22.5867 77.2304 22.0625C76.2486 21.5383 75.4896 20.807 74.955 19.8702C74.4204 18.9335 74.1523 17.8731 74.1523 16.6906C74.1523 15.5215 74.4131 14.4686 74.9332 13.5318C75.4532 12.595 76.1758 11.8653 77.0993 11.341C78.0229 10.8168 79.063 10.5547 80.2211 10.5547C81.3647 10.5547 82.3873 10.8138 83.2876 11.3306C84.1893 11.8474 84.8929 12.5742 85.3984 13.5109C85.9039 14.4477 86.1574 15.5304 86.1574 16.7591C86.1559 16.9527 86.1413 17.2297 86.1122 17.5886ZM77.9894 13.5988C77.3805 14.1305 77.0105 14.8394 76.8794 15.7226H83.5411C83.4231 14.8543 83.0647 14.1484 82.4631 13.6092C81.8614 13.0701 81.1141 12.8005 80.2211 12.8005C79.3413 12.8005 78.5969 13.0671 77.9894 13.5988Z" fill="white"/>
<path d="M88.793 6.01953H91.5418V22.6982H88.793V6.01953Z" fill="white"/>
<path d="M95.1523 6.01953H97.9012V22.6982H95.1523V6.01953Z" fill="white"/>
<path d="M36.9258 26.75H37.444V31.7302H36.9258V26.75Z" fill="white"/>
<path d="M40.3047 26.75H40.8229V31.7302H40.3047V26.75Z" fill="white"/>
<path d="M44.6453 27.2057H42.9336V26.75H46.8712V27.2057H45.1595V31.7302H44.6453V27.2057V27.2057Z" fill="white"/>
<path d="M58.5274 31.7278L57.4145 30.1268C57.2892 30.1417 57.1595 30.1476 57.0255 30.1476H55.7174V31.7263H55.2031V26.7461H57.0255C57.6475 26.7461 58.1341 26.898 58.4866 27.2018C58.8392 27.5056 59.0154 27.9226 59.0154 28.4543C59.0154 28.843 58.9193 29.1722 58.727 29.4402C58.5347 29.7083 58.2594 29.9019 57.9025 30.0196L59.0926 31.7263H58.5274V31.7278ZM58.1181 29.3732C58.373 29.1558 58.5012 28.849 58.5012 28.4558C58.5012 28.0522 58.373 27.7424 58.1181 27.528C57.8631 27.312 57.4946 27.2048 57.0124 27.2048H55.7188V29.7009H57.0124C57.4931 29.7009 57.8617 29.5921 58.1181 29.3732Z" fill="white"/>
<path d="M62.3344 31.4439C61.9425 31.2235 61.6366 30.9212 61.4166 30.5369C61.1967 30.1527 61.0859 29.7208 61.0859 29.2427C61.0859 28.7647 61.1967 28.3313 61.4166 27.9485C61.6366 27.5643 61.9425 27.262 62.3344 27.0416C62.7262 26.8211 63.1633 26.7109 63.6454 26.7109C64.1276 26.7109 64.5632 26.8197 64.9507 27.0386C65.3382 27.256 65.6426 27.5583 65.8655 27.9456C66.0884 28.3328 66.1991 28.7647 66.1991 29.2442C66.1991 29.7238 66.0884 30.1557 65.8655 30.5429C65.6426 30.9301 65.3382 31.2324 64.9507 31.4499C64.5632 31.6673 64.1291 31.7775 63.6454 31.7775C63.1633 31.7745 62.7262 31.6643 62.3344 31.4439ZM64.6885 31.0388C64.9988 30.8601 65.242 30.6144 65.4198 30.2987C65.596 29.9829 65.6849 29.6315 65.6849 29.2427C65.6849 28.854 65.596 28.5026 65.4198 28.1868C65.2435 27.8711 65.0002 27.6254 64.6885 27.4467C64.3782 27.2679 64.03 27.1801 63.6454 27.1801C63.2609 27.1801 62.9112 27.2694 62.598 27.4467C62.2848 27.6239 62.0386 27.8711 61.8609 28.1868C61.6817 28.5026 61.5929 28.854 61.5929 29.2427C61.5929 29.6315 61.6817 29.9829 61.8609 30.2987C62.0401 30.6144 62.2848 30.8601 62.598 31.0388C62.9112 31.2161 63.2594 31.3054 63.6454 31.3054C64.03 31.3054 64.3782 31.2161 64.6885 31.0388Z" fill="white"/>
<path d="M69.4594 31.4439C69.0675 31.2235 68.7616 30.9212 68.5416 30.5369C68.3217 30.1527 68.2109 29.7208 68.2109 29.2427C68.2109 28.7647 68.3217 28.3313 68.5416 27.9485C68.7616 27.5643 69.0675 27.262 69.4594 27.0416C69.8512 26.8211 70.2883 26.7109 70.7704 26.7109C71.2526 26.7109 71.6882 26.8197 72.0757 27.0386C72.4632 27.256 72.7676 27.5583 72.9905 27.9456C73.2134 28.3328 73.3241 28.7647 73.3241 29.2442C73.3241 29.7238 73.2134 30.1557 72.9905 30.5429C72.7676 30.9301 72.4632 31.2324 72.0757 31.4499C71.6882 31.6673 71.2541 31.7775 70.7704 31.7775C70.2883 31.7745 69.8512 31.6643 69.4594 31.4439ZM71.8135 31.0388C72.1238 30.8601 72.367 30.6144 72.5448 30.2987C72.721 29.9829 72.8099 29.6315 72.8099 29.2427C72.8099 28.854 72.721 28.5026 72.5448 28.1868C72.3685 27.8711 72.1252 27.6254 71.8135 27.4467C71.5032 27.2679 71.155 27.1801 70.7704 27.1801C70.3859 27.1801 70.0362 27.2694 69.723 27.4467C69.4098 27.6239 69.1636 27.8711 68.9859 28.1868C68.8067 28.5026 68.7179 28.854 68.7179 29.2427C68.7179 29.6315 68.8067 29.9829 68.9859 30.2987C69.1651 30.6144 69.4098 30.8601 69.723 31.0388C70.0362 31.2161 70.3844 31.3054 70.7704 31.3054C71.155 31.3054 71.5032 31.2161 71.8135 31.0388Z" fill="white"/>
<path d="M79.0899 31.7278L77.977 30.1268C77.8517 30.1417 77.722 30.1476 77.588 30.1476H76.2799V31.7263H75.7656V26.7461H77.588C78.21 26.7461 78.6966 26.898 79.0491 27.2018C79.4017 27.5056 79.5779 27.9226 79.5779 28.4543C79.5779 28.843 79.4818 29.1722 79.2895 29.4402C79.0972 29.7083 78.8219 29.9019 78.465 30.0196L79.6551 31.7263H79.0899V31.7278ZM78.6806 29.3732C78.9355 29.1558 79.0637 28.849 79.0637 28.4558C79.0637 28.0522 78.9355 27.7424 78.6806 27.528C78.4256 27.312 78.0571 27.2048 77.5749 27.2048H76.2813V29.7009H77.5749C78.0556 29.7009 78.4256 29.5921 78.6806 29.3732Z" fill="white"/>
<path d="M83.5912 29.389L82.5963 30.4211V31.7302H82.082V26.75H82.5963V29.7599L85.4558 26.75H86.0473L83.9394 29.0048L86.1944 31.7287H85.5826L83.5912 29.389Z" fill="white"/>
<path d="M91.768 31.2745V31.7302H88.3242V26.75H91.6645V27.2057H88.8399V28.9765H91.3586V29.4248H88.8399V31.2745H91.768Z" fill="white"/>
<path d="M97.7055 31.2745V31.7302H94.2617V26.75H97.602V27.2057H94.7774V28.9765H97.2961V29.4248H94.7774V31.2745H97.7055Z" fill="white"/>
<path d="M24.9769 15.7907C25.3796 18.2311 25.2035 20.3449 23.6014 22.2661C21.758 24.477 18.8796 27.6373 17.0083 29.8241C16.0191 27.9559 15.4636 27.1486 13.9414 25.2499C17.3373 21.2799 20.8821 17.106 24.333 13.185C24.617 14.0332 24.8295 14.9064 24.9769 15.7907Z" fill="#138AD5"/>
<path d="M19.5132 36.5614C18.6691 33.2326 17.8777 31.7721 17.8777 31.7721C18.2928 31.3772 20.7134 28.4441 21.5707 27.3831C22.3093 31.2215 21.1983 34.4115 19.5132 36.5614Z" fill="#138AD5"/>
<path d="M25.297 1.35065C25.8068 4.40097 25.8681 7.84131 23.8711 10.3564C21.3379 13.5455 18.586 16.5967 15.9156 19.6646C15.298 20.3732 14.6789 21.0803 14.0613 21.7881C13.8201 22.0649 12.4786 23.7181 12.4786 23.7181C8.05944 19.2939 3.06614 17.9288 2.43228 17.7659C1.28249 17.4714 0.523716 17.7587 0.41665 17.867C0.265362 17.6808 1.10404 16.6994 1.1824 16.5028C1.42524 15.8864 1.433 15.2356 1.7798 14.6418C2.48504 13.4348 3.83267 13.1017 5.12057 13.2221C6.61949 13.3634 9.01373 14.1779 11.0371 13.7349C13.9861 13.0897 16.1452 10.5682 18.5053 8.04114C20.7949 5.58948 22.916 2.97572 25.1202 0.441406C25.1877 0.741543 25.2474 1.04489 25.297 1.35065Z" fill="#138AD5"/>
</svg>
