<svg width="80" height="38" viewBox="0 0 80 38" fill="none" xmlns="http://www.w3.org/2000/svg">
<path fill-rule="evenodd" clip-rule="evenodd" d="M0.582031 28.2216H3.63137V31.5744H9.07877V28.2216H12.09V37.6314H9.07877V33.6695H3.59238V37.5938H0.582031V28.2216ZM12.4325 28.2216H15.4038L18.5285 31.8411L21.615 28.2216H24.5487L20.0144 33.9743V37.6314H17.0045V33.7076L12.4325 28.2216ZM24.9297 28.2216H27.9401V35.4983H32.7788C33.5408 35.4983 34.0361 34.7376 34.0361 33.9366V28.2216H37.0455V35.7273C37.0455 36.908 35.7125 37.5938 34.95 37.5938H24.9297V28.2216ZM37.6932 28.2216H47.7148C48.8959 28.2216 49.8484 28.9446 49.8484 30.4131V37.6126L46.8385 37.6314V31.9169C46.8385 31.1181 46.5714 30.6417 45.5427 30.6417H41.0088V37.6525H37.6932V28.2216ZM50.7633 28.2216H59.5258C61.2793 28.2216 62.6321 29.6309 62.6321 30.7165V35.0411C62.6128 35.8026 61.5456 37.631 60.2125 37.631H50.7637L50.7633 28.2216ZM53.8301 35.5368H58.455C59.1211 35.5368 59.6361 35.0415 59.6361 34.431V31.6883C59.6361 31.0213 59.0879 30.6228 58.3842 30.6228H53.8301V35.5368ZM66.3475 28.1817H75.7394V37.6314H72.3857V35.1944H66.6129V37.6314H63.2224V31.4969C63.1458 29.4404 64.9755 28.1817 66.3475 28.1817ZM66.5748 31.5372V33.0594H72.3669V30.6582H67.4887C66.9181 30.6587 66.5748 31.0025 66.5748 31.5372ZM76.3485 28.2028H79.3584V37.9174H76.3485V28.2028ZM40.1536 0.976562C27.663 0.976562 17.537 5.97618 17.537 12.1416C17.537 18.3076 27.663 23.3076 40.1536 23.3076C52.6432 23.3076 62.7697 18.308 62.7697 12.1416C62.7693 5.97662 52.6427 0.976562 40.1536 0.976562ZM38.0079 3.46158C40.5893 2.54897 48.2586 3.46158 51.2375 4.89234C52.1909 5.80674 46.9865 8.74448 40.7896 10.0179C31.9298 11.8046 36.1405 4.97123 38.0079 3.46158ZM22.7925 16.6912C20.8449 15.3026 17.0314 11.3286 23.3488 7.19717C26.6859 5.25093 28.5528 4.81256 30.8567 4.33653C31.9697 4.09718 32.764 4.37598 31.7707 5.21059C29.6653 7.39574 25.295 14.6249 24.8983 16.2152C24.5796 17.2887 23.9445 17.5653 22.7925 16.6912ZM40.9868 21.3009C37.253 21.6971 28.9504 20.4663 28.7908 19.395C28.9504 16.8109 41.9806 12.5204 44.3239 14.9041C45.3181 16.771 43.4113 21.1812 40.9868 21.3009ZM59.9777 13.7903C59.0234 15.9759 55.8059 18.4402 49.0528 20.109C48.0187 20.3457 47.6615 19.711 48.3365 19.1148C49.45 18.4398 54.8131 9.46165 55.4881 7.67275C55.8857 6.75835 56.6401 7.11738 57.1175 7.47418C59.2632 8.86415 60.8916 11.1291 59.9777 13.7903Z" fill="#295BA7"/>
</svg>
