<svg width="149" height="30" viewBox="0 0 149 30" fill="none" xmlns="http://www.w3.org/2000/svg">
<path d="M0.675459 3.50866C0.608679 3.57544 0.558594 9.13489 0.558594 15.8797V28.1172H3.14633H5.73406V26.8651V25.6129H4.48193H3.2298L3.26319 15.8296L3.31328 6.02961L4.46524 6.01292L5.6172 5.99622V4.74409V3.49196L3.21311 3.44188C1.8775 3.42518 0.742239 3.45857 0.675459 3.50866Z" fill="#009EFF"/>
<path d="M6.73828 4.72948V6.08178H9.24254C12.1475 6.08178 13.049 6.24874 14.2678 6.96662C15.4865 7.68451 16.0875 8.83647 16.0875 10.3891C16.0875 11.9584 15.8037 12.7097 14.8354 13.6947C13.5666 14.997 12.6316 15.2808 9.3761 15.3976L6.73828 15.4811V16.6164V17.7683H8.54135H10.3277L12.064 20.1891C13.0323 21.5247 13.8671 22.5598 13.9172 22.493C14.5182 21.7918 15.5867 20.2559 15.5867 20.1056C15.5867 19.9888 15.1693 19.3377 14.6684 18.6532C14.1676 17.952 13.7502 17.3343 13.7502 17.2675C13.7502 17.184 14.034 17.0337 14.3846 16.9336C15.3529 16.6164 16.4214 15.9486 17.3563 15.0637C19.9274 12.6429 19.9942 7.88485 17.4899 5.58093C15.8705 4.07838 14.0674 3.57752 9.87695 3.46066L6.73828 3.36049V4.72948Z" fill="#009EFF"/>
<path d="M22.4347 4.74302V6.07863H23.6868H24.9389V15.7618V25.4449H23.6868H22.418L22.4681 26.7471L22.5181 28.0326L24.989 28.0827L27.4432 28.1328V15.7618V3.40742H24.9389H22.4347V4.74302Z" fill="#009EFF"/>
<path d="M18.1567 17.399C18.0565 17.4657 17.0715 18.7513 15.9696 20.2705C14.8677 21.7898 13.1815 24.1271 12.1965 25.4794C11.2115 26.815 10.4102 27.9669 10.4102 28.017C10.4102 28.0671 11.128 28.1172 11.9795 28.1172H13.5655L15.1015 25.9802C15.9529 24.8116 17.7226 22.4075 19.0415 20.6378C20.3604 18.8681 21.4289 17.3823 21.4289 17.3489C21.4289 17.2153 18.357 17.2654 18.1567 17.399Z" fill="#009EFF"/>
<path d="M16.8373 24.1927L15.9023 25.4616L16.7705 26.6636C17.2546 27.3314 17.7221 27.9157 17.8223 27.9825C18.0393 28.1328 21.4284 28.1662 21.4284 28.0159C21.4284 27.899 21.0945 27.4316 19.2414 24.8939L17.7889 22.9239L16.8373 24.1927Z" fill="#009EFF"/>
<path d="M41.58 22L38.5 16.56H37.18V22H34.38V8.04H39.62C40.7 8.04 41.62 8.23333 42.38 8.62C43.14 8.99333 43.7067 9.50667 44.08 10.16C44.4667 10.8 44.66 11.52 44.66 12.32C44.66 13.24 44.3933 14.0733 43.86 14.82C43.3267 15.5533 42.5333 16.06 41.48 16.34L44.82 22H41.58ZM37.18 14.46H39.52C40.28 14.46 40.8467 14.28 41.22 13.92C41.5933 13.5467 41.78 13.0333 41.78 12.38C41.78 11.74 41.5933 11.2467 41.22 10.9C40.8467 10.54 40.28 10.36 39.52 10.36H37.18V14.46ZM46.4725 16.42C46.4725 15.3 46.6925 14.3067 47.1325 13.44C47.5858 12.5733 48.1925 11.9067 48.9525 11.44C49.7258 10.9733 50.5858 10.74 51.5325 10.74C52.3592 10.74 53.0792 10.9067 53.6925 11.24C54.3192 11.5733 54.8192 11.9933 55.1925 12.5V10.92H58.0125V22H55.1925V20.38C54.8325 20.9 54.3325 21.3333 53.6925 21.68C53.0658 22.0133 52.3392 22.18 51.5125 22.18C50.5792 22.18 49.7258 21.94 48.9525 21.46C48.1925 20.98 47.5858 20.3067 47.1325 19.44C46.6925 18.56 46.4725 17.5533 46.4725 16.42ZM55.1925 16.46C55.1925 15.78 55.0592 15.2 54.7925 14.72C54.5258 14.2267 54.1658 13.8533 53.7125 13.6C53.2592 13.3333 52.7725 13.2 52.2525 13.2C51.7325 13.2 51.2525 13.3267 50.8125 13.58C50.3725 13.8333 50.0125 14.2067 49.7325 14.7C49.4658 15.18 49.3325 15.7533 49.3325 16.42C49.3325 17.0867 49.4658 17.6733 49.7325 18.18C50.0125 18.6733 50.3725 19.0533 50.8125 19.32C51.2658 19.5867 51.7458 19.72 52.2525 19.72C52.7725 19.72 53.2592 19.5933 53.7125 19.34C54.1658 19.0733 54.5258 18.7 54.7925 18.22C55.0592 17.7267 55.1925 17.14 55.1925 16.46ZM66.8872 10.76C68.2072 10.76 69.2739 11.18 70.0872 12.02C70.9005 12.8467 71.3072 14.0067 71.3072 15.5V22H68.5072V15.88C68.5072 15 68.2872 14.3267 67.8472 13.86C67.4072 13.38 66.8072 13.14 66.0472 13.14C65.2739 13.14 64.6605 13.38 64.2072 13.86C63.7672 14.3267 63.5472 15 63.5472 15.88V22H60.7472V10.92H63.5472V12.3C63.9205 11.82 64.3939 11.4467 64.9672 11.18C65.5539 10.9 66.1939 10.76 66.8872 10.76ZM80.5298 22L76.7698 17.28V22H73.9698V7.2H76.7698V15.62L80.4898 10.92H84.1298L79.2498 16.48L84.1698 22H80.5298ZM100.87 8.04V22H98.0695V12.92L94.3295 22H92.2095L88.4495 12.92V22H85.6495V8.04H88.8295L93.2695 18.42L97.7095 8.04H100.87ZM102.918 16.42C102.918 15.3 103.138 14.3067 103.578 13.44C104.031 12.5733 104.638 11.9067 105.398 11.44C106.171 10.9733 107.031 10.74 107.978 10.74C108.804 10.74 109.524 10.9067 110.138 11.24C110.764 11.5733 111.264 11.9933 111.638 12.5V10.92H114.458V22H111.638V20.38C111.278 20.9 110.778 21.3333 110.138 21.68C109.511 22.0133 108.784 22.18 107.958 22.18C107.024 22.18 106.171 21.94 105.398 21.46C104.638 20.98 104.031 20.3067 103.578 19.44C103.138 18.56 102.918 17.5533 102.918 16.42ZM111.638 16.46C111.638 15.78 111.504 15.2 111.238 14.72C110.971 14.2267 110.611 13.8533 110.158 13.6C109.704 13.3333 109.218 13.2 108.698 13.2C108.178 13.2 107.698 13.3267 107.258 13.58C106.818 13.8333 106.458 14.2067 106.178 14.7C105.911 15.18 105.778 15.7533 105.778 16.42C105.778 17.0867 105.911 17.6733 106.178 18.18C106.458 18.6733 106.818 19.0533 107.258 19.32C107.711 19.5867 108.191 19.72 108.698 19.72C109.218 19.72 109.704 19.5933 110.158 19.34C110.611 19.0733 110.971 18.7 111.238 18.22C111.504 17.7267 111.638 17.14 111.638 16.46ZM120.453 13.22V18.58C120.453 18.9533 120.539 19.2267 120.713 19.4C120.899 19.56 121.206 19.64 121.633 19.64H122.933V22H121.173C118.813 22 117.633 20.8533 117.633 18.56V13.22H116.313V10.92H117.633V8.18H120.453V10.92H122.933V13.22H120.453ZM127.746 12.64C128.106 12.0533 128.573 11.5933 129.146 11.26C129.733 10.9267 130.4 10.76 131.146 10.76V13.7H130.406C129.526 13.7 128.86 13.9067 128.406 14.32C127.966 14.7333 127.746 15.4533 127.746 16.48V22H124.946V10.92H127.746V12.64ZM134.452 9.6C133.959 9.6 133.546 9.44667 133.212 9.14C132.892 8.82 132.732 8.42667 132.732 7.96C132.732 7.49333 132.892 7.10667 133.212 6.8C133.546 6.48 133.959 6.32 134.452 6.32C134.946 6.32 135.352 6.48 135.672 6.8C136.006 7.10667 136.172 7.49333 136.172 7.96C136.172 8.42667 136.006 8.82 135.672 9.14C135.352 9.44667 134.946 9.6 134.452 9.6ZM135.832 10.92V22H133.032V10.92H135.832ZM144.719 22L142.439 18.56L140.419 22H137.419L141.039 16.44L137.379 10.92H140.539L142.799 14.34L144.839 10.92H147.839L144.199 16.44L147.879 22H144.719Z" fill="#009EFF"/>
</svg>
