<svg width="93" height="43" viewBox="0 0 93 43" fill="none" xmlns="http://www.w3.org/2000/svg">
<g clip-path="url(#clip0_14_6680)">
<path d="M10.0556 5.13056C8.7387 5.11688 7.42868 5.29467 6.1621 5.65481C5.08757 5.95796 4.07704 6.45486 3.18083 7.12043C2.38522 7.71761 1.73593 8.48803 1.28096 9.37014C0.832858 10.2659 0.601947 11.2552 0.608806 12.2581C0.608806 13.3043 0.784847 14.2115 1.12093 14.9705C1.441 15.7113 1.91883 16.3723 2.51782 16.9125C3.13054 17.455 3.82098 17.904 4.5663 18.2414C5.36877 18.6038 6.19868 18.9024 7.04917 19.1303C7.92709 19.3674 8.83015 19.5702 9.74008 19.7412C10.6912 19.9167 11.6308 20.1469 12.5567 20.425C13.1786 20.605 13.7776 20.8603 14.3377 21.184C14.7744 21.4552 15.0876 21.7493 15.2705 22.0729C15.458 22.3943 15.554 22.7613 15.5403 23.1306C15.5494 23.6662 15.3825 24.1927 15.0648 24.6258C14.7332 25.0589 14.3011 25.4076 13.8073 25.6424C13.2518 25.9182 12.6596 26.1142 12.0492 26.2259C11.393 26.3536 10.7232 26.4174 10.0556 26.4151C9.41772 26.4151 8.78214 26.3262 8.16714 26.1575C7.55214 25.9866 6.96915 25.7176 6.43874 25.362C5.91747 25.0201 5.48309 24.5665 5.1653 24.0332C4.83608 23.4588 4.6669 22.8069 4.67604 22.1459H0.000664134C-0.0130534 23.224 0.18585 24.2953 0.585944 25.2982C0.947171 26.1917 1.47987 27.0077 2.15431 27.6984C2.81961 28.3776 3.59007 28.9429 4.43827 29.376C5.2979 29.825 6.2124 30.1555 7.15891 30.3652C8.10999 30.5795 9.08164 30.6889 10.0556 30.6889C11.4731 30.7025 12.8882 30.5225 14.2577 30.1532C15.4123 29.841 16.4982 29.319 17.4653 28.6147C18.3249 27.9764 19.0222 27.149 19.5069 26.1963C19.9893 25.2002 20.2317 24.1061 20.2202 22.9984C20.2134 21.7516 19.9962 20.7031 19.5549 19.8574C19.1114 19.0027 18.4575 18.2778 17.6551 17.7467C16.7291 17.1427 15.7186 16.6732 14.6578 16.3541C13.3592 15.9529 12.04 15.6269 10.7049 15.3785C9.66692 15.1802 8.6404 14.9249 7.63216 14.6126C6.83426 14.3528 6.24669 14.0428 5.8626 13.6827C5.4808 13.3271 5.27275 12.8256 5.29104 12.3059C5.2819 11.8637 5.41907 11.4307 5.6797 11.0728C5.96091 10.7013 6.32443 10.4004 6.74052 10.1907C7.22063 9.93998 7.73504 9.75763 8.26545 9.65278C8.8553 9.53425 9.45659 9.47499 10.0579 9.47727C11.0547 9.47727 11.9052 9.64822 12.607 9.96505C13.2632 10.2431 13.8279 10.7013 14.2348 11.2825C14.6075 11.8432 14.8064 12.5042 14.8018 13.1766H19.4749C19.4749 12.3857 19.356 11.6016 19.1183 10.8472C18.8759 10.0653 18.5056 9.32911 18.0277 8.66582C17.5179 7.95923 16.8915 7.34152 16.1759 6.84235C15.3688 6.28618 14.4749 5.86451 13.533 5.59554C12.4058 5.27643 11.2376 5.11916 10.0647 5.13056M23.437 22.6359C23.4233 23.7802 23.6016 24.9176 23.9651 26.0003C24.2829 26.9439 24.8156 27.8032 25.522 28.5053C26.2399 29.1982 27.1201 29.7042 28.0826 29.9754C29.1023 30.274 30.2774 30.3584 31.6172 30.2216V25.9866C30.849 26.039 30.2066 25.9569 29.6945 25.7495C29.1892 25.5489 28.7777 25.1706 28.5376 24.6828C28.277 24.1722 28.1489 23.4884 28.1489 22.6359V4H23.437V22.6359ZM82.5205 22.5995L87.0518 30.2581H93.0007L85.8127 19.1759L92.6097 12.0826H86.1671L80.1839 18.6836V4H75.5131V30.2581H80.1862V25.0406L82.5205 22.6017V22.5995Z" fill="white"/>
<path d="M42.4132 30.5635C41.1809 30.5635 39.9624 30.3127 38.8307 29.8318C37.7333 29.3554 36.7387 28.6716 35.8997 27.8191C34.153 26.0526 33.1768 23.6684 33.1836 21.1885C33.1791 18.6972 34.153 16.3016 35.8997 14.5191C36.7365 13.6621 37.731 12.9715 38.8307 12.4905C39.9601 12.0005 41.1786 11.7475 42.4109 11.7475C43.4466 11.7429 44.4754 11.9047 45.4585 12.2261C47.3972 12.8712 49.041 14.1886 50.0904 15.9392C50.662 16.9079 51.0644 17.9655 51.2861 19.0664C51.5285 20.3201 51.5925 21.6011 51.4713 22.8707H37.6555L37.6967 23.0211C37.8842 23.7368 38.2179 24.4069 38.6798 24.9859C39.1164 25.5261 39.672 25.9592 40.303 26.2532C40.95 26.5564 41.6588 26.7114 42.3743 26.7068C42.9025 26.7068 43.4283 26.627 43.9336 26.4698C44.4297 26.317 44.8938 26.0754 45.3053 25.7586C45.5385 25.5762 45.7488 25.3688 45.934 25.1363H50.8792C50.534 26.0572 50.0264 26.9074 49.3817 27.6505C48.5701 28.5736 47.5596 29.3007 46.4256 29.7816C45.2367 30.2922 43.8924 30.5543 42.4086 30.5589M42.3743 15.5995C40.9843 15.5836 39.6629 16.1945 38.7804 17.2657C38.3231 17.8196 37.9802 18.4556 37.7676 19.1417L37.7173 19.2966H47.1L47.0589 19.1485C46.8783 18.4601 46.5513 17.8173 46.0964 17.268C45.6551 16.7415 45.0996 16.3221 44.4731 16.0372C43.8101 15.7477 43.0945 15.5973 42.3721 15.6018M63.0146 30.5635C61.5308 30.5635 60.1774 30.2968 58.9954 29.7862C57.8614 29.3053 56.8532 28.5781 56.0393 27.655C55.3945 26.9119 54.8893 26.0595 54.544 25.1409H59.4892C59.6744 25.3711 59.8847 25.5808 60.1179 25.7632C60.5294 26.08 60.9936 26.3216 61.4897 26.4743C61.9949 26.6316 62.5185 26.7114 63.0489 26.7114C63.7668 26.7182 64.4755 26.5632 65.1248 26.2578C65.7535 25.9637 66.3091 25.5307 66.7458 24.9905C67.2076 24.4092 67.5437 23.7414 67.7311 23.0234L67.7723 22.8729H53.9565C53.833 21.6033 53.8925 20.3201 54.1348 19.0664C54.3543 17.9655 54.759 16.9079 55.3305 15.9369C56.3799 14.1864 58.0237 12.8689 59.9625 12.2238C60.9455 11.9002 61.9743 11.7383 63.01 11.7429C64.2446 11.7429 65.4677 11.9959 66.5971 12.4905C67.6968 12.9737 68.6913 13.6644 69.5281 14.5237C71.2748 16.3084 72.2488 18.7017 72.2442 21.1953C72.251 23.6753 71.2748 26.0595 69.5281 27.826C68.6913 28.6784 67.6945 29.3622 66.5971 29.8386C65.4654 30.3196 64.2469 30.568 63.0169 30.5703M63.0489 15.6018C62.3287 15.5995 61.6131 15.7477 60.9547 16.0372C60.3283 16.3221 59.7727 16.7415 59.3314 17.268C58.8765 17.8173 58.5496 18.4601 58.3689 19.1485L58.3278 19.2966H67.7106L67.6603 19.1417C67.4476 18.4578 67.1024 17.8196 66.6474 17.2657C65.7649 16.1945 64.4412 15.5813 63.0512 15.5995H63.0466L63.0489 15.6018Z" fill="#2F80ED"/>
<path d="M52.7476 39.9999C48.6026 39.9954 44.5811 38.5845 41.3461 36.002C41.0077 35.7877 40.866 35.366 41.0077 34.9922C41.1929 34.4247 41.8285 33.9255 42.368 33.9255C42.5418 33.9232 42.7133 33.9802 42.8504 34.0873C45.6579 36.337 49.1491 37.5656 52.7522 37.5679C56.3004 37.5816 59.7504 36.3872 62.5282 34.1876C62.7019 34.0463 62.9214 33.9711 63.1455 33.9733C63.653 33.9733 64.1903 34.3472 64.3983 34.8395C64.5767 35.2407 64.4783 35.7079 64.156 36.0065C60.9301 38.6073 56.9017 40.0182 52.7545 39.9999" fill="#2F80ED"/>
</g>
<defs>
<clipPath id="clip0_14_6680">
<rect width="93" height="36" fill="white" transform="translate(0 4)"/>
</clipPath>
</defs>
</svg>
