<svg width="88" height="38" viewBox="0 0 88 38" fill="none" xmlns="http://www.w3.org/2000/svg">
<g clip-path="url(#clip0_16_6773)">
<path d="M9.51496 5.06775C8.26888 5.05483 7.02929 5.22274 5.83081 5.56287C4.81404 5.84918 3.85785 6.31848 3.00982 6.94707C2.25698 7.51108 1.6426 8.2387 1.21209 9.0718C0.788081 9.91782 0.569585 10.8521 0.576075 11.7993C0.576075 12.7874 0.742651 13.6442 1.06066 14.361C1.36353 15.0607 1.81566 15.6849 2.38246 16.1951C2.96223 16.7075 3.61555 17.1316 4.3208 17.4502C5.08013 17.7925 5.86542 18.0745 6.67018 18.2897C7.5009 18.5136 8.35541 18.7052 9.21642 18.8667C10.1164 19.0324 11.0055 19.2498 11.8816 19.5125C12.4701 19.6825 13.0369 19.9236 13.5669 20.2293C13.9801 20.4855 14.2765 20.7632 14.4495 21.0689C14.6269 21.3724 14.7178 21.719 14.7048 22.0677C14.7134 22.5736 14.5555 23.0709 14.2548 23.4799C13.9411 23.8889 13.5323 24.2183 13.065 24.44C12.5393 24.7005 11.979 24.8857 11.4014 24.9911C10.7805 25.1117 10.1467 25.172 9.51496 25.1698C8.91139 25.1698 8.30998 25.0859 7.72805 24.9266C7.14611 24.7651 6.59446 24.5111 6.09257 24.1753C5.59933 23.8524 5.1883 23.424 4.88759 22.9202C4.57607 22.3777 4.41599 21.7621 4.42464 21.1378H0.000628428C-0.0123516 22.156 0.175858 23.1678 0.554441 24.115C0.896248 24.9588 1.4003 25.7295 2.03849 26.3818C2.66802 27.0233 3.39706 27.5572 4.19965 27.9662C5.01307 28.3903 5.8784 28.7024 6.77402 28.9005C7.67396 29.1028 8.59338 29.2062 9.51496 29.2062C10.8562 29.2191 12.1953 29.049 13.4912 28.7003C14.5836 28.4053 15.6112 27.9124 16.5263 27.2472C17.3397 26.6444 17.9995 25.863 18.4582 24.9632C18.9146 24.0224 19.1439 22.9891 19.1331 21.9429C19.1266 20.7654 18.9211 19.7751 18.5036 18.9764C18.0839 18.1692 17.4652 17.4846 16.7059 16.983C15.8297 16.4126 14.8735 15.9691 13.8697 15.6677C12.641 15.2888 11.3927 14.981 10.1293 14.7464C9.14719 14.5591 8.17586 14.318 7.22183 14.023C6.46683 13.7776 5.91085 13.4849 5.54741 13.1447C5.18613 12.8089 4.98927 12.3353 5.00658 11.8445C4.99792 11.4269 5.12772 11.0179 5.37434 10.6799C5.64043 10.329 5.9844 10.0448 6.37813 9.84678C6.83243 9.60998 7.31918 9.43776 7.82107 9.33874C8.37921 9.2268 8.94817 9.17083 9.51712 9.17298C10.4603 9.17298 11.2651 9.33443 11.9292 9.63366C12.5501 9.89629 13.0845 10.329 13.4695 10.8779C13.8222 11.4075 14.0104 12.0318 14.006 12.6668H18.4279C18.4279 11.9198 18.3154 11.1793 18.0904 10.4668C17.8611 9.72838 17.5106 9.03305 17.0585 8.40661C16.5761 7.73927 15.9833 7.15588 15.3062 6.68444C14.5425 6.15917 13.6967 5.76092 12.8054 5.5069C11.7389 5.20552 10.6334 5.05698 9.52361 5.06775M22.1769 21.6006C22.164 22.6813 22.3327 23.7555 22.6767 24.778C22.9774 25.6692 23.4814 26.4808 24.1499 27.1439C24.8292 27.7983 25.6621 28.2762 26.5728 28.5324C27.5377 28.8144 28.6496 28.894 29.9173 28.7649V24.7651C29.1905 24.8146 28.5826 24.7371 28.098 24.5412C27.6199 24.3518 27.2305 23.9944 27.0033 23.5337C26.7567 23.0515 26.6356 22.4057 26.6356 21.6006V4H22.1769V21.6006ZM78.0839 21.5662L82.3716 28.7993H88.0006L81.1991 18.3328L87.6307 11.6335H81.5344L75.873 17.8678V4H71.4533V28.7993H75.8752V23.8717L78.0839 21.5683V21.5662Z" fill="white"/>
<path d="M40.1357 29.0878C38.9697 29.0878 37.8167 28.851 36.7458 28.3968C35.7074 27.9469 34.7664 27.3011 33.9724 26.4959C32.3196 24.8276 31.3959 22.5758 31.4024 20.2337C31.3981 17.8808 32.3196 15.6183 33.9724 13.9348C34.7642 13.1254 35.7052 12.4731 36.7458 12.0189C37.8145 11.5561 38.9675 11.3171 40.1336 11.3171C41.1136 11.3128 42.0871 11.4657 43.0173 11.7692C44.8518 12.3784 46.4072 13.6227 47.4002 15.276C47.9411 16.1909 48.3218 17.1897 48.5316 18.2295C48.761 19.4135 48.8215 20.6233 48.7069 21.8224H35.6339L35.6728 21.9645C35.8502 22.6404 36.166 23.2733 36.603 23.8201C37.0162 24.3303 37.5419 24.7393 38.139 25.017C38.7512 25.3033 39.4219 25.4497 40.099 25.4454C40.5987 25.4454 41.0963 25.3701 41.5744 25.2215C42.0438 25.0773 42.483 24.8491 42.8724 24.5499C43.093 24.3777 43.292 24.1818 43.4673 23.9622H48.1466C47.8199 24.8319 47.3396 25.6349 46.7296 26.3366C45.9616 27.2085 45.0054 27.8952 43.9324 28.3494C42.8075 28.8316 41.5354 29.0792 40.1314 29.0835M40.099 14.9552C38.7837 14.9402 37.5333 15.5171 36.6982 16.5289C36.2655 17.052 35.941 17.6526 35.7399 18.3006L35.6923 18.4469H44.5706L44.5316 18.307C44.3607 17.6569 44.0514 17.0498 43.6209 16.531C43.2034 16.0337 42.6777 15.6376 42.0849 15.3686C41.4575 15.0952 40.7804 14.9531 40.0968 14.9574M59.6295 29.0878C58.2255 29.0878 56.9448 28.8359 55.8264 28.3537C54.7534 27.8995 53.7993 27.2128 53.0292 26.3409C52.4191 25.6392 51.941 24.834 51.6144 23.9665H56.2937C56.4689 24.1839 56.6679 24.382 56.8886 24.5542C57.278 24.8534 57.7171 25.0816 58.1866 25.2258C58.6647 25.3744 59.1601 25.4497 59.662 25.4497C60.3413 25.4562 61.0119 25.3098 61.6263 25.0213C62.2212 24.7436 62.7469 24.3346 63.1601 23.8244C63.5971 23.2755 63.9151 22.6447 64.0925 21.9666L64.1314 21.8245H51.0584C50.9416 20.6255 50.9978 19.4135 51.2271 18.2295C51.4348 17.1897 51.8177 16.1909 52.3586 15.2738C53.3515 13.6205 54.907 12.3763 56.7415 11.7671C57.6717 11.4614 58.6452 11.3085 59.6252 11.3128C60.7934 11.3128 61.9508 11.5518 63.0195 12.0189C64.06 12.4753 65.0011 13.1276 65.7929 13.9391C67.4456 15.6247 68.3672 17.8851 68.3629 20.2401C68.3694 22.5823 67.4456 24.834 65.7929 26.5024C65.0011 27.3075 64.0579 27.9533 63.0195 28.4032C61.9486 28.8575 60.7956 29.0921 59.6317 29.0943M59.662 14.9574C58.9805 14.9552 58.3034 15.0952 57.6804 15.3686C57.0876 15.6376 56.5619 16.0337 56.1444 16.531C55.7139 17.0498 55.4045 17.6569 55.2336 18.307L55.1947 18.4469H64.073L64.0254 18.3006C63.8242 17.6547 63.4976 17.052 63.0671 16.5289C62.232 15.5171 60.9794 14.938 59.6641 14.9552H59.6598L59.662 14.9574Z" fill="#2F80ED"/>
<path d="M49.9143 38C45.9922 37.9957 42.1869 36.6632 39.1257 34.2241C38.8056 34.0218 38.6714 33.6235 38.8056 33.2705C38.9808 32.7344 39.5822 32.263 40.0928 32.263C40.2572 32.2608 40.4194 32.3147 40.5492 32.4158C43.2058 34.5406 46.5092 35.7009 49.9186 35.703C53.2761 35.716 56.5406 34.5879 59.169 32.5106C59.3334 32.3771 59.5411 32.3061 59.7531 32.3082C60.2334 32.3082 60.7417 32.6613 60.9386 33.1262C61.1073 33.5051 61.0143 33.9464 60.7093 34.2284C57.6568 36.6847 53.845 38.0172 49.9208 38" fill="#2F80ED"/>
</g>
<defs>
<clipPath id="clip0_16_6773">
<rect width="88" height="34" fill="white" transform="translate(0 4)"/>
</clipPath>
</defs>
</svg>
