<svg width="52" height="51" viewBox="0 0 52 51" fill="none" xmlns="http://www.w3.org/2000/svg">
<path d="M0 44.424C0 48.0561 3.00198 51 6.70495 51H45.2948C48.9984 51 52 48.0557 52 44.424V6.57621C52 2.94386 48.998 0 45.295 0H6.70516C3.00158 0 0 2.94425 0 6.57601V44.4238V44.424Z" fill="#563D7C"/>
<path d="M21.5634 22.5591V15.3369H28.0453C28.6628 15.3369 29.258 15.3873 29.8312 15.4883C30.4044 15.5891 30.9116 15.7692 31.3526 16.0287C31.7934 16.2883 32.1462 16.6487 32.4109 17.1099C32.6753 17.5713 32.8078 18.1624 32.8078 18.8829C32.8078 20.1805 32.4109 21.1176 31.6171 21.6941C30.8234 22.2709 29.8092 22.5591 28.5744 22.5591H21.5634ZM14.6402 10.0605V40.9395H29.8974C31.3085 40.9395 32.6829 40.7665 34.0204 40.4205C35.358 40.0744 36.5485 39.5411 37.5922 38.8204C38.6357 38.0996 39.4662 37.1696 40.0835 36.0309C40.701 34.892 41.0096 33.5441 41.0096 31.9872C41.0096 30.0553 40.5318 28.4048 39.5765 27.0354C38.621 25.6658 37.1731 24.7071 35.2329 24.1593C36.644 23.4963 37.7098 22.6456 38.4301 21.6077C39.1502 20.5697 39.5103 19.2724 39.5103 17.7153C39.5103 16.2738 39.2678 15.0629 38.7827 14.0826C38.2977 13.1024 37.6141 12.3167 36.7322 11.7256C35.8504 11.1345 34.7921 10.7092 33.5573 10.4498C32.3227 10.1902 30.9557 10.0605 29.4564 10.0605H14.6402ZM21.5634 35.6631V27.1866H29.1036C30.6029 27.1866 31.8082 27.5253 32.7196 28.203C33.6308 28.8805 34.0867 30.0121 34.0867 31.5979C34.0867 32.4053 33.9469 33.0683 33.6676 33.5873C33.3883 34.1063 33.0135 34.5172 32.5431 34.8199C32.0729 35.1227 31.5289 35.3388 30.9116 35.4687C30.2941 35.5982 29.6476 35.6631 28.9714 35.6631H21.5634Z" fill="white"/>
</svg>
