<svg width="45" height="51" viewBox="0 0 45 51" fill="none" xmlns="http://www.w3.org/2000/svg">
<path d="M44.9977 14.994C44.9974 14.1365 44.8155 13.3787 44.4477 12.7284C44.0864 12.0888 43.5453 11.5528 42.8196 11.129C36.8288 7.64581 30.8323 4.17323 24.8435 0.686451C23.2289 -0.253466 21.6635 -0.2192 20.0609 0.73421C17.6764 2.15225 5.73808 9.04929 2.18061 11.1271C0.715543 11.9823 0.00264103 13.2912 0.00228889 14.9924C0 21.9974 0.00228889 29.0022 0 36.0074C0.000352137 36.8461 0.174484 37.5891 0.526093 38.2297C0.887563 38.8885 1.43619 39.4393 2.17867 39.8727C5.73632 41.9505 17.6762 48.847 20.0602 50.2654C21.6635 51.2193 23.2289 51.2534 24.844 50.3131C30.833 46.8262 36.8299 43.3538 42.8215 39.8705C43.564 39.4373 44.1126 38.8862 44.4741 38.2279C44.8252 37.5873 44.9996 36.8443 45 36.0054C45 36.0054 45 21.9992 44.9977 14.994Z" fill="#5C8DBC"/>
<path d="M22.5689 25.4316L0.526077 38.2297C0.887547 38.8886 1.43618 39.4393 2.17866 39.8727C5.73631 41.9505 17.6762 48.847 20.0602 50.2654C21.6635 51.2194 23.2289 51.2535 24.844 50.3132C30.833 46.8262 36.8299 43.3538 42.8215 39.8706C43.564 39.4374 44.1126 38.8863 44.4741 38.2279L22.5689 25.4316Z" fill="#1A4674"/>
<path d="M16.04 29.2225C17.3227 31.4805 19.7339 33.0035 22.5 33.0035C25.2831 33.0035 27.7081 31.4612 28.9842 29.179L22.5688 25.4316L16.04 29.2225Z" fill="#1A4674"/>
<path d="M44.9977 14.9942C44.9973 14.1366 44.8155 13.3789 44.4477 12.7285L22.5688 25.4318L44.4741 38.2281C44.8252 37.5875 44.9996 36.8445 45 36.0056C45 36.0056 45 21.9993 44.9977 14.9942Z" fill="#1B598E"/>
<path d="M43.7931 26.3463H42.0814V28.0727H40.3693V26.3463H38.6578V24.6204H40.3693V22.8943H42.0814V24.6204H43.7931V26.3463ZM37.5471 26.3463H35.8356V28.0727H34.1238V26.3463H32.4121V24.6204H34.1238V22.8943H35.8356V24.6204H37.5471V26.3463Z" fill="white"/>
<path d="M28.9843 29.1793C27.7081 31.4614 25.2831 33.0037 22.5 33.0037C19.734 33.0037 17.3227 31.4808 16.04 29.2228C15.3957 28.0897 15.0573 26.8061 15.0586 25.5C15.0586 21.356 18.3904 17.9965 22.5 17.9965C25.2483 17.9965 27.6469 19.5005 28.9359 21.7354L35.44 17.9587C32.8548 13.4586 28.0282 10.4312 22.5 10.4312C14.2466 10.4312 7.55617 17.1778 7.55617 25.5C7.55617 28.2303 8.27647 30.7906 9.53536 32.9991C12.1141 37.5229 16.9544 40.5691 22.5 40.5691C28.0559 40.5691 32.9037 37.5107 35.4787 32.9735L28.9843 29.1793Z" fill="white"/>
</svg>
