<svg width="46" height="51" viewBox="0 0 46 51" fill="none" xmlns="http://www.w3.org/2000/svg">
<path d="M46 0L41.8093 45.8947L22.9718 51L4.18628 45.9019L0 0H46Z" fill="#264DE4"/>
<path d="M38.2216 42.9723L41.8028 3.75317H23V47.0977L38.2216 42.9723Z" fill="#2965F1"/>
<path d="M9.59695 20.7776L10.1131 26.4072H23V20.7776H9.59695Z" fill="#EBEBEB"/>
<path d="M23 9.38281H22.9801H8.55988L9.08337 15.0125H23V9.38281Z" fill="#EBEBEB"/>
<path d="M23 41.2555V35.3983L22.9748 35.4048L16.5612 33.7119L16.1512 29.2219H13.0348H10.3704L11.1772 38.0613L22.9735 41.2627L23 41.2555Z" fill="#EBEBEB"/>
<path d="M30.0713 26.407L29.4029 33.7083L22.9801 35.403V41.26L34.7858 38.0613L34.8724 37.1102L36.2256 22.2891L36.3662 20.7774L37.4058 9.38281H22.9801V15.0125H31.0947L30.5707 20.7774H22.9801V26.407H30.0713Z" fill="white"/>
</svg>
