<svg width="51" height="51" viewBox="0 0 51 51" fill="none" xmlns="http://www.w3.org/2000/svg">
<path d="M51 0H0V51H51V0Z" fill="#F7DF1E"/>
<path d="M34.259 39.844C35.2863 41.5214 36.6229 42.7543 38.9867 42.7543C40.9724 42.7543 42.2409 41.7618 42.2409 40.3905C42.2409 38.7471 40.9376 38.1651 38.7519 37.209L37.5538 36.695C34.0955 35.2217 31.7981 33.3759 31.7981 29.474C31.7981 25.8797 34.5367 23.1436 38.8167 23.1436C41.8637 23.1436 44.0543 24.204 45.6329 26.9807L41.9009 29.3769C41.0793 27.9036 40.1929 27.3231 38.8167 27.3231C37.4129 27.3231 36.5233 28.2136 36.5233 29.3769C36.5233 30.8146 37.4138 31.3966 39.4699 32.2871L40.668 32.8004C44.7399 34.5465 47.039 36.3266 47.039 40.3289C47.039 44.6437 43.6495 47.0075 39.0976 47.0075C34.6468 47.0075 31.7714 44.8866 30.3644 42.1067L34.259 39.844ZM17.3295 40.2593C18.0823 41.595 18.7672 42.7243 20.4138 42.7243C21.9883 42.7243 22.9816 42.1083 22.9816 39.7129V23.4172H27.7739V39.7776C27.7739 44.74 24.8645 46.9986 20.6178 46.9986C16.7806 46.9986 14.5585 45.0128 13.4284 42.6211L17.3295 40.2593Z" fill="black"/>
</svg>
