<svg width="22" height="51" viewBox="0 0 22 51" fill="none" xmlns="http://www.w3.org/2000/svg">
<path d="M10.8467 0.13916L12.1537 2.69534C12.4476 3.16706 12.7659 3.58459 13.1409 3.97344C14.2403 5.10384 15.265 6.31031 16.208 7.5846C18.4227 10.6125 19.9164 13.9751 20.9832 17.6117C21.6229 19.8332 21.9704 22.1121 21.9964 24.4165C22.1035 31.3058 19.8353 37.2214 15.2622 42.1377C14.5183 42.9173 13.7147 43.6326 12.8593 44.2764C12.4063 44.2764 12.192 43.9146 12.0053 43.5815C11.6653 42.9639 11.439 42.2856 11.338 41.5815C11.1773 40.7481 11.0717 39.9146 11.1237 39.054V38.6652C11.087 38.5823 10.6875 0.335177 10.8467 0.13916Z" fill="#599636"/>
<path d="M10.8467 0.0548257C10.7932 -0.0567285 10.7396 0.027734 10.686 0.0819175C10.712 0.639689 10.5253 1.1369 10.233 1.6118C9.91159 2.08352 9.48612 2.44527 9.05911 2.83412C6.68685 4.97277 4.81964 7.55605 3.32435 10.4453C1.33471 14.3338 0.309277 18.5011 0.0184833 22.8884C-0.11467 24.4709 0.499058 30.0549 0.978103 31.6661C2.28514 35.9434 4.63292 39.5275 7.67401 42.6383C8.42089 43.3873 9.21981 44.0821 10.0463 44.7498C10.2866 44.7498 10.3126 44.5267 10.3677 44.361C10.473 44.0063 10.5533 43.6441 10.608 43.2773L11.1436 39.1116L10.8467 0.0548257Z" fill="#6CAC48"/>
<path d="M12.1538 45.9689C12.2073 45.3315 12.5012 44.8024 12.8211 44.2749C12.4997 44.1363 12.2609 43.8606 12.0742 43.553C11.9132 43.2618 11.7799 42.9549 11.6762 42.6367C11.3028 41.4701 11.2232 40.2462 11.1161 39.0542V38.3323C10.9829 38.4438 10.9554 39.3873 10.9554 39.5275C10.8775 40.7874 10.7169 42.0402 10.4748 43.2773C10.3952 43.7777 10.3417 44.2765 10.0463 44.7211C10.0463 44.7769 10.0463 44.8327 10.0723 44.9155C10.5529 46.388 10.6845 47.8876 10.7656 49.4159V49.9737C10.7656 50.6398 10.7396 50.4996 11.2707 50.7227C11.4849 50.8056 11.7237 50.8343 11.938 51C12.0987 51 12.1247 50.8613 12.1247 50.7498L12.0451 49.8335V47.2773C12.0191 46.8311 12.0987 46.388 12.1522 45.9705L12.1538 45.9689Z" fill="#C2BFBF"/>
</svg>
