<svg width="50" height="50" viewBox="0 0 50 50" fill="none" xmlns="http://www.w3.org/2000/svg">
<path d="M46.0552 38.6716C43.3348 38.6025 41.2263 38.8797 39.458 39.6417C38.9479 39.8494 38.1316 39.8496 38.0636 40.5079C38.3357 40.7851 38.3697 41.2355 38.6078 41.6164C39.0163 42.3092 39.7299 43.2446 40.3761 43.7299C41.0901 44.284 41.8045 44.8382 42.5524 45.3233C43.8787 46.1548 45.3752 46.6396 46.6674 47.4712C47.4158 47.9558 48.1634 48.5799 48.9117 49.0994C49.2858 49.3762 49.5237 49.827 50 50V49.8963C49.7617 49.5842 49.6937 49.134 49.4558 48.7876C49.1161 48.4411 48.7756 48.1293 48.4355 47.7828C47.4494 46.432 46.2253 45.254 44.8991 44.284C43.8109 43.5218 41.4302 42.4826 40.9883 41.2007C40.9883 41.2007 40.9541 41.1662 40.9203 41.1316C41.6683 41.0623 42.5524 40.7851 43.2668 40.5772C44.4229 40.2652 45.477 40.3347 46.6674 40.0229C47.2114 39.8843 47.7555 39.711 48.2995 39.5378V39.2262C47.6877 38.6025 47.2456 37.7712 46.5994 37.1822C44.865 35.6575 42.9605 34.1681 40.9883 32.921C39.934 32.2281 38.5736 31.7777 37.4514 31.1889C37.0437 30.9808 36.3633 30.877 36.1254 30.5306C35.513 29.7685 35.1729 28.764 34.731 27.8631C33.7451 25.9576 32.7926 23.8445 31.9423 21.8354C31.3306 20.4841 30.9564 19.1329 30.2082 17.886C26.7056 11.9966 22.8968 8.42837 17.0478 4.92922C15.7895 4.20183 14.2932 3.89001 12.6949 3.50909C11.8451 3.47424 10.9946 3.40515 10.1445 3.3703C9.60038 3.12777 9.05622 2.46968 8.58008 2.15786C6.64208 0.910563 1.64278 -1.79131 0.214545 1.77694C-0.703731 4.02859 1.57495 6.24561 2.3568 7.38916C2.93536 8.18584 3.68319 9.08646 4.09132 9.98728C4.32939 10.5759 4.39721 11.1999 4.63528 11.8234C5.17964 13.3472 5.6894 15.0452 6.40381 16.4657C6.77793 17.1931 7.18585 17.9551 7.662 18.6134C7.93408 18.9943 8.41003 19.1677 8.51225 19.7912C8.0363 20.4841 8.0021 21.5235 7.72982 22.3895C6.50565 26.3042 6.98199 31.1542 8.71612 34.0295C9.26008 34.8953 10.5525 36.8013 12.2868 36.0735C13.8173 35.4501 13.4772 33.4754 13.9189 31.7432C14.0213 31.3271 13.9533 31.0503 14.1572 30.7731V30.8426C14.6333 31.8123 15.1093 32.748 15.5514 33.7179C16.6057 35.4152 18.4419 37.1822 19.9721 38.3602C20.7886 38.9834 21.4346 40.0575 22.4549 40.4386V40.3345H22.3867C22.1826 40.0227 21.8765 39.8843 21.6046 39.6415C20.9926 39.0183 20.3122 38.2561 19.8363 37.5631C18.4082 35.6229 17.1497 33.4752 16.0275 31.258C15.4836 30.1843 15.0072 29.0063 14.5653 27.9324C14.361 27.5163 14.361 26.893 14.0211 26.6854C13.511 27.4474 12.7629 28.1057 12.3888 29.0409C11.743 30.5306 11.6748 32.3667 11.4367 34.2719C11.3007 34.3069 11.3685 34.2719 11.3005 34.3415C10.2126 34.064 9.83845 32.921 9.43014 31.9509C8.40983 29.4914 8.23978 25.542 9.12424 22.7013C9.36231 21.9738 10.3826 19.6875 9.97449 18.9945C9.77043 18.3362 9.09003 17.9551 8.71612 17.4356C8.27418 16.7773 7.79784 15.9462 7.49195 15.2184C6.6757 13.2784 6.26758 11.1304 5.38351 9.1904C4.97539 8.28958 4.26156 7.35451 3.68319 6.52298C3.0372 5.58771 2.32298 4.92922 1.81283 3.82071C1.64297 3.43979 1.40471 2.81615 1.67679 2.40038C1.74481 2.12321 1.88065 2.01947 2.15293 1.95017C2.59506 1.56886 3.85344 2.05391 4.29518 2.2618C5.55356 2.7811 6.60768 3.26656 7.662 3.99395C8.13794 4.34042 8.6481 4.99871 9.26009 5.17195H9.9743C11.0626 5.41428 12.2866 5.24124 13.3069 5.55286C15.1094 6.14166 16.7415 7.00784 18.204 7.94331C22.6589 10.8186 26.3312 14.9066 28.814 19.7912C29.2221 20.5877 29.392 21.3157 29.7661 22.1468C30.4805 23.8445 31.3646 25.5766 32.0784 27.2395C32.7926 28.8675 33.4726 30.5306 34.4929 31.8818C35.0031 32.609 37.0433 32.9903 37.9616 33.3714C38.6418 33.683 39.6961 33.9604 40.3081 34.3413C41.4642 35.0685 42.6204 35.9005 43.7087 36.6969C44.2529 37.1127 45.953 37.9789 46.0552 38.6716Z" fill="#00546B"/>
<path d="M11.3683 8.56665C10.7904 8.56665 10.3824 8.63634 9.9743 8.74008V8.80938H10.0423C10.3146 9.36373 10.7904 9.74485 11.1303 10.2297C11.4025 10.7839 11.6404 11.3384 11.9127 11.8928C11.9465 11.8579 11.9805 11.8235 11.9805 11.8235C12.4568 11.4768 12.6947 10.9226 12.6947 10.0911C12.4907 9.84879 12.4567 9.60626 12.2866 9.36373C12.0827 9.01706 11.6404 8.84403 11.3683 8.56665Z" fill="#00546B"/>
</svg>
