<svg width="50" height="51" viewBox="0 0 50 51" fill="none" xmlns="http://www.w3.org/2000/svg">
<path d="M25 29.9962C27.4702 29.9962 29.4727 27.9832 29.4727 25.4999C29.4727 23.0167 27.4702 21.0037 25 21.0037C22.5298 21.0037 20.5273 23.0167 20.5273 25.4999C20.5273 27.9832 22.5298 29.9962 25 29.9962Z" fill="#61DAFB"/>
<path d="M25 34.7119C38.2548 34.7119 49 30.5876 49 25.5C49 20.4124 38.2548 16.2881 25 16.2881C11.7452 16.2881 1 20.4124 1 25.5C1 30.5876 11.7452 34.7119 25 34.7119Z" stroke="#61DAFB" stroke-width="2"/>
<path d="M17.064 30.1059C23.6915 41.6454 32.6171 48.9378 37 46.394C41.3829 43.8503 39.5633 32.4335 32.9359 20.894C26.3085 9.35459 17.3829 2.06215 13 4.60594C8.61708 7.14974 10.4366 18.5665 17.064 30.1059Z" stroke="#61DAFB" stroke-width="2"/>
<path d="M17.064 20.8941C10.4366 32.4335 8.61709 43.8503 13 46.3941C17.3829 48.9379 26.3085 41.6454 32.9359 30.106C39.5633 18.5665 41.3829 7.14976 37 4.60597C32.6171 2.06218 23.6915 9.35461 17.064 20.8941Z" stroke="#61DAFB" stroke-width="2"/>
</svg>
