<svg width="52" height="51" viewBox="0 0 52 51" fill="none" xmlns="http://www.w3.org/2000/svg">
<path d="M9.20833 0H42.7917C47.8833 0 52 4.14103 52 9.26282V41.7372C52 46.859 47.8833 51 42.7917 51H9.20833C4.11667 51 0 46.859 0 41.7372V9.26282C0 4.14103 4.11667 0 9.20833 0Z" fill="#330000"/>
<path d="M25.1984 30.6H17.1384L15.4917 35.7218C15.4484 35.918 15.275 36.0488 15.08 36.027H11.0067C10.7684 36.027 10.7034 35.8962 10.7684 35.6347L17.745 15.4308C17.81 15.2129 17.875 14.9731 17.9617 14.7116C18.0484 14.2539 18.0917 13.7744 18.0917 13.2949C18.07 13.1859 18.1567 13.077 18.265 13.0552C18.2867 13.0552 18.3084 13.0552 18.33 13.0552H23.8767C24.05 13.0552 24.1367 13.1206 24.1583 13.2295L32.0667 35.6783C32.1317 35.918 32.0667 36.027 31.85 36.027H27.3217C27.17 36.0488 27.0184 35.9398 26.975 35.7872L25.1984 30.6ZM18.395 26.1757H23.8984C23.7684 25.718 23.595 25.1731 23.4 24.6065C23.205 24.018 23.01 23.3859 22.815 22.7321C22.5984 22.0565 22.4034 21.4026 22.1867 20.727C21.97 20.0513 21.775 19.4193 21.6017 18.7872C21.4283 18.177 21.2767 17.6103 21.125 17.0872H21.0817C20.8867 18.0244 20.6484 18.9616 20.345 19.8988C20.02 20.9449 19.695 22.0347 19.3484 23.1244C19.045 24.2359 18.72 25.2603 18.395 26.1757Z" fill="#FF9A00"/>
<path d="M36.79 16.782C36.075 16.8038 35.3817 16.5205 34.8617 16.0192C34.3634 15.4743 34.1034 14.7551 34.125 14.0141C34.1034 13.2731 34.385 12.5756 34.905 12.0743C35.425 11.5731 36.1184 11.3115 36.8334 11.3115C37.6784 11.3115 38.3284 11.5731 38.805 12.0743C39.2817 12.5974 39.5417 13.2949 39.52 14.0141C39.5417 14.7551 39.2817 15.4743 38.7617 16.0192C38.2634 16.5423 37.5267 16.8256 36.79 16.782ZM34.3634 35.7V18.9179C34.3634 18.7 34.45 18.6128 34.645 18.6128H38.935C39.13 18.6128 39.2167 18.7218 39.2167 18.9179V35.7C39.2167 35.9397 39.13 36.0487 38.935 36.0487H34.6884C34.4717 36.0487 34.3634 35.9179 34.3634 35.7Z" fill="#FF9A00"/>
</svg>
