<svg width="50" height="50" viewBox="0 0 50 50" fill="none" xmlns="http://www.w3.org/2000/svg">
<path d="M25 50C38.8071 50 50 38.8071 50 25C50 11.1929 38.8071 0 25 0C11.1929 0 0 11.1929 0 25C0 38.8071 11.1929 50 25 50Z" fill="#7D2AE7"/>
<path d="M25 50C38.8071 50 50 38.8071 50 25C50 11.1929 38.8071 0 25 0C11.1929 0 0 11.1929 0 25C0 38.8071 11.1929 50 25 50Z" fill="url(#paint0_radial_57_10604)"/>
<path d="M25 50C38.8071 50 50 38.8071 50 25C50 11.1929 38.8071 0 25 0C11.1929 0 0 11.1929 0 25C0 38.8071 11.1929 50 25 50Z" fill="url(#paint1_radial_57_10604)"/>
<path d="M25 50C38.8071 50 50 38.8071 50 25C50 11.1929 38.8071 0 25 0C11.1929 0 0 11.1929 0 25C0 38.8071 11.1929 50 25 50Z" fill="url(#paint2_radial_57_10604)"/>
<path d="M25 50C38.8071 50 50 38.8071 50 25C50 11.1929 38.8071 0 25 0C11.1929 0 0 11.1929 0 25C0 38.8071 11.1929 50 25 50Z" fill="url(#paint3_radial_57_10604)"/>
<path d="M35.7931 30.1285C35.5868 30.1285 35.4052 30.3027 35.2163 30.6832C33.0826 35.0098 29.3973 38.0711 25.1328 38.0711C20.2017 38.0711 17.1481 33.6198 17.1481 27.4703C17.1481 17.0536 22.9519 11.0309 28.0497 11.0309C30.4318 11.0309 31.8866 12.5279 31.8866 14.9101C31.8866 17.7375 30.2802 19.2344 30.2802 20.2316C30.2802 20.6792 30.5587 20.9502 31.1108 20.9502C33.3289 20.9502 35.9323 18.4014 35.9323 14.8007C35.9323 11.3094 32.8937 8.74316 27.796 8.74316C19.3712 8.74316 11.8838 16.5538 11.8838 27.3608C11.8838 35.7261 16.6607 41.254 24.0312 41.254C31.8542 41.254 36.3776 33.4706 36.3776 30.9442C36.3776 30.3848 36.0916 30.1285 35.7931 30.1285Z" fill="white"/>
<defs>
<radialGradient id="paint0_radial_57_10604" cx="0" cy="0" r="1" gradientUnits="userSpaceOnUse" gradientTransform="translate(9.65812 44.3161) rotate(-49.416) scale(38.6708)">
<stop stop-color="#6420FF"/>
<stop offset="1" stop-color="#6420FF" stop-opacity="0"/>
</radialGradient>
<radialGradient id="paint1_radial_57_10604" cx="0" cy="0" r="1" gradientUnits="userSpaceOnUse" gradientTransform="translate(13.2368 5.68411) rotate(54.703) scale(43.6084)">
<stop stop-color="#00C4CC"/>
<stop offset="1" stop-color="#00C4CC" stop-opacity="0"/>
</radialGradient>
<radialGradient id="paint2_radial_57_10604" cx="0" cy="0" r="1" gradientUnits="userSpaceOnUse" gradientTransform="translate(9.65789 44.3158) rotate(-45.1954) scale(38.2026 17.5699)">
<stop stop-color="#6420FF"/>
<stop offset="1" stop-color="#6420FF" stop-opacity="0"/>
</radialGradient>
<radialGradient id="paint3_radial_57_10604" cx="0" cy="0" r="1" gradientUnits="userSpaceOnUse" gradientTransform="translate(20.4474 6.73684) rotate(66.5198) scale(39.3647 65.9447)">
<stop stop-color="#00C4CC" stop-opacity="0.725916"/>
<stop offset="0.0001" stop-color="#00C4CC"/>
<stop offset="1" stop-color="#00C4CC" stop-opacity="0"/>
</radialGradient>
</defs>
</svg>
