<svg width="32" height="32" viewBox="0 0 32 32" fill="none" xmlns="http://www.w3.org/2000/svg">
<g clip-path="url(#clip0_557_2151)">
<path d="M5 0.174805H27C29.6648 0.174805 31.8252 2.33523 31.8252 5V27C31.8252 29.6648 29.6648 31.8252 27 31.8252H5C2.33523 31.8252 0.174805 29.6648 0.174805 27V5C0.174805 2.33523 2.33523 0.174805 5 0.174805Z" fill="black" stroke="#6C6C6C" stroke-width="0.35"/>
<path d="M15.9844 15.9969C15.9844 14.2297 17.4171 12.7969 19.1843 12.7969C20.9517 12.7969 22.3843 14.2297 22.3843 15.9969C22.3843 17.7643 20.9517 19.197 19.1843 19.197C17.4171 19.197 15.9844 17.7643 15.9844 15.9969Z" fill="#1ABCFE"/>
<path d="M9.58203 22.403C9.58203 20.6358 11.0147 19.2031 12.7821 19.2031H15.9821V22.403C15.9821 24.1704 14.5494 25.6031 12.7821 25.6031C11.0147 25.6031 9.58203 24.1704 9.58203 22.403Z" fill="#0ACF83"/>
<path d="M15.9844 6.39844V12.7984H19.1843C20.9517 12.7984 22.3843 11.3657 22.3843 9.59848C22.3843 7.83113 20.9517 6.39844 19.1843 6.39844H15.9844Z" fill="#FF7262"/>
<path d="M9.58203 9.59848C9.58203 11.3657 11.0147 12.7984 12.7821 12.7984H15.9821V6.39844H12.7821C11.0147 6.39844 9.58203 7.83113 9.58203 9.59848Z" fill="#F24E1E"/>
<path d="M9.58203 15.9969C9.58203 17.7643 11.0147 19.197 12.7821 19.197H15.9821V12.7969H12.7821C11.0147 12.7969 9.58203 14.2297 9.58203 15.9969Z" fill="#A259FF"/>
</g>
<defs>
<clipPath id="clip0_557_2151">
<rect width="32" height="32" fill="white"/>
</clipPath>
</defs>
</svg>
