<svg width="46" height="51" viewBox="0 0 46 51" fill="none" xmlns="http://www.w3.org/2000/svg">
<g clip-path="url(#clip0_57_10775)">
<path d="M30.5794 21.0037H38.5918V22.4287H35.4133V29.9256H33.824V22.4287H30.5794V21.0037Z" fill="white"/>
<path d="M17.402 21.0037V22.4287H10.9795V24.7211H16.1445V26.1462H10.9795V28.5006H17.402V29.9256H9.39031V22.4287H9.38964V21.0037H17.402Z" fill="white"/>
<path d="M21.4028 21.0073H19.323L26.7725 29.9292H28.8583L25.1332 25.4714L28.8524 21.0141L26.7725 21.0172L24.0919 24.2252L21.4028 21.0073Z" fill="white"/>
<path d="M23.5371 27.3804L22.4955 26.1326L19.3171 29.9362H21.4028L23.5371 27.3804Z" fill="white"/>
<path fill-rule="evenodd" clip-rule="evenodd" d="M9.44599 29.9256L1.98653 21H0V29.9219H1.58923V22.9071L7.44951 29.9256H9.44599Z" fill="white"/>
<path d="M38.949 29.8711C38.8326 29.8711 38.7336 29.8323 38.6507 29.7546C38.5678 29.6769 38.5269 29.5828 38.5279 29.4714C38.5269 29.363 38.5678 29.2699 38.6507 29.1922C38.7336 29.1145 38.8326 29.0757 38.949 29.0757C39.061 29.0757 39.159 29.1145 39.2419 29.1922C39.3259 29.2699 39.3678 29.363 39.369 29.4714C39.3678 29.545 39.3485 29.6125 39.3097 29.6728C39.2699 29.7341 39.2193 29.7822 39.1557 29.817C39.0932 29.8528 39.0243 29.8711 38.949 29.8711Z" fill="white"/>
<path d="M41.6615 26.1125H42.3658V28.727C42.3647 28.9672 42.3108 29.1728 42.2054 29.3456C42.0988 29.5184 41.9512 29.6502 41.7617 29.7433C41.5733 29.8353 41.3525 29.8823 41.1016 29.8823C40.8722 29.8823 40.6666 29.8425 40.4835 29.7648C40.3004 29.6871 40.1551 29.5705 40.0485 29.4171C39.9407 29.2638 39.888 29.0726 39.888 28.8435H40.5934C40.5944 28.9437 40.6181 29.0306 40.6633 29.1032C40.7085 29.1758 40.7709 29.231 40.8507 29.2699C40.9314 29.3087 41.0241 29.3282 41.1284 29.3282C41.2416 29.3282 41.3385 29.3057 41.417 29.2597C41.4956 29.2147 41.556 29.1472 41.598 29.0572C41.6389 28.9683 41.6605 28.8578 41.6615 28.727V26.1125Z" fill="white"/>
<path d="M45.2634 27.1351C45.2463 26.9766 45.1708 26.8529 45.0395 26.7649C44.907 26.676 44.7358 26.632 44.5258 26.632C44.3783 26.632 44.2513 26.6535 44.1458 26.6954C44.0402 26.7383 43.9584 26.7956 43.9023 26.8682C43.8464 26.9408 43.8184 27.0236 43.8162 27.1167C43.8162 27.1944 43.8356 27.2618 43.8733 27.3181C43.911 27.3753 43.9615 27.4234 44.0273 27.4622C44.0918 27.5021 44.164 27.5348 44.2427 27.5614C44.3223 27.588 44.402 27.6105 44.4817 27.6289L44.8488 27.7158C44.9964 27.7485 45.1397 27.7925 45.2764 27.8487C45.4131 27.9039 45.537 27.9745 45.6457 28.0594C45.7545 28.1442 45.8406 28.2465 45.9041 28.3661C45.9677 28.4857 46 28.6258 46 28.7873C46 29.0051 45.9419 29.1963 45.8244 29.362C45.7071 29.5266 45.538 29.6554 45.3162 29.7485C45.0954 29.8405 44.8284 29.8875 44.514 29.8875C44.2103 29.8875 43.9454 29.8425 43.7225 29.7525C43.4986 29.6636 43.3241 29.5327 43.1981 29.3609C43.0721 29.1892 43.0043 28.9796 42.9946 28.7331H43.6924C43.7021 28.862 43.7452 28.9693 43.8184 29.0562C43.8926 29.1421 43.9895 29.2055 44.108 29.2485C44.2276 29.2904 44.361 29.3119 44.5086 29.3119C44.6626 29.3119 44.7983 29.2894 44.9156 29.2454C45.0319 29.2014 45.1234 29.1401 45.1892 29.0603C45.2559 28.9816 45.2893 28.8886 45.2904 28.7822C45.2893 28.6851 45.2591 28.6043 45.201 28.5409C45.1418 28.4775 45.0599 28.4244 44.9554 28.3814C44.85 28.3385 44.7272 28.2996 44.5872 28.2659L44.1414 28.1575C43.8194 28.0788 43.5642 27.9592 43.3779 27.7986C43.1906 27.6381 43.0979 27.4254 43.0979 27.1586C43.0979 26.9398 43.1604 26.7476 43.2865 26.5829C43.4113 26.4183 43.5826 26.2905 43.799 26.1995C44.0165 26.1075 44.262 26.0625 44.5355 26.0625C44.8133 26.0625 45.0567 26.1075 45.2667 26.1995C45.4766 26.2905 45.6415 26.4173 45.7609 26.5788C45.8804 26.7404 45.9429 26.9255 45.9462 27.1351H45.2634Z" fill="white"/>
</g>
<defs>
<clipPath id="clip0_57_10775">
<rect width="46" height="9" fill="white" transform="translate(0 21)"/>
</clipPath>
</defs>
</svg>
