<svg width="34" height="50" viewBox="0 0 34 50" fill="none" xmlns="http://www.w3.org/2000/svg">
<path d="M32.5493 32.6802C33.0848 33.2178 32.7052 34.1367 31.9487 34.1367H17.85C17.3797 34.1367 17 34.5178 17 34.9901V49.1454C17 49.9049 16.0848 50.2861 15.5493 49.7485L0.3315 34.4695C0.119 34.2561 0 33.966 0 33.6644V17.9218C0 17.4496 0.379667 17.0684 0.85 17.0684H17L32.5493 32.6802Z" fill="white"/>
<path d="M17 17.0683L1.45068 1.45649C0.915179 0.918843 1.29485 0 2.05134 0H33.15C33.6203 0 34 0.381192 34 0.853415V16.2149C34 16.6871 33.6203 17.0683 33.15 17.0683H17Z" fill="white"/>
</svg>
