<svg width="51" height="51" viewBox="0 0 51 51" fill="none" xmlns="http://www.w3.org/2000/svg">
<path d="M50.0383 23.2281L27.7711 0.961796C26.4896 -0.320599 24.4097 -0.320599 23.1266 0.961796L18.5027 5.58575L24.3683 11.4515C25.7313 10.9909 27.2944 11.2998 28.381 12.3864C29.4727 13.4799 29.7795 15.0564 29.3077 16.4238L34.9606 22.077C36.3282 21.6058 37.9062 21.9106 38.9985 23.0048C40.5252 24.5308 40.5252 27.0042 38.9985 28.5312C37.4715 30.0584 34.9982 30.0584 33.4704 28.5312C32.3221 27.3817 32.0384 25.6953 32.6197 24.2806L27.348 19.0088L27.3474 32.882C27.7296 33.071 28.0786 33.3206 28.381 33.6211C29.9076 35.1472 29.9076 37.6207 28.381 39.149C26.8539 40.6754 24.3794 40.6754 22.8546 39.149C21.328 37.6207 21.328 35.1474 22.8546 33.6213C23.2205 33.2553 23.6552 32.9654 24.1338 32.7685V18.7659C23.6545 18.5703 23.2195 18.2802 22.8546 17.913C21.698 16.7579 21.4198 15.0608 22.0125 13.6405L16.2304 7.85768L0.962228 23.1251C-0.320743 24.4087 -0.320743 26.4888 0.962228 27.7714L23.2297 50.0381C24.5117 51.3207 26.5912 51.3207 27.8747 50.0381L50.0381 27.8748C51.3206 26.5918 51.3208 24.5105 50.0383 23.2281Z" fill="#DE4C36"/>
</svg>
