<svg width="52" height="50" viewBox="0 0 52 50" fill="none" xmlns="http://www.w3.org/2000/svg">
<path d="M26.0001 0C11.6425 0 0 11.476 0 25.6329C0 36.9583 7.44981 46.5665 17.7805 49.956C19.0799 50.1932 19.557 49.3999 19.557 48.7228C19.557 48.1117 19.5328 46.0923 19.5217 43.9505C12.2883 45.5011 10.762 40.9261 10.762 40.9261C9.57929 37.9633 7.87517 37.1756 7.87517 37.1756C5.51629 35.5846 8.05299 35.6172 8.05299 35.6172C10.6639 35.7981 12.0387 38.2588 12.0387 38.2588C14.3576 42.1776 18.1211 41.0445 19.6047 40.3898C19.838 38.7328 20.512 37.6022 21.2554 36.9621C15.4806 36.3138 9.40963 34.1159 9.40963 24.2942C9.40963 21.4958 10.4253 19.209 12.0887 17.414C11.8187 16.7683 10.9288 14.1612 12.3405 10.6305C12.3405 10.6305 14.5238 9.94154 19.4924 13.258C21.5662 12.6899 23.7905 12.4052 26.0001 12.3956C28.2097 12.4052 30.4356 12.6899 32.5135 13.258C37.4762 9.94154 39.6565 10.6305 39.6565 10.6305C41.0716 14.1612 40.1813 16.7683 39.9113 17.414C41.5783 19.209 42.5871 21.4956 42.5871 24.2942C42.5871 34.1392 36.5048 36.3072 30.7152 36.9416C31.6477 37.7371 32.4787 39.2971 32.4787 41.6884C32.4787 45.1181 32.4485 47.8785 32.4485 48.7228C32.4485 49.4049 32.9165 50.2043 34.2346 49.9526C44.5596 46.5593 52 36.9545 52 25.6329C52 11.476 40.3591 0 26.0001 0Z" fill="white"/>
<path d="M9.73785 36.5147C9.68076 36.642 9.47725 36.6802 9.2923 36.5929C9.10368 36.5093 8.99764 36.3356 9.05882 36.2078C9.11489 36.0767 9.3184 36.0401 9.50661 36.1282C9.69564 36.2116 9.80331 36.3869 9.73785 36.5147ZM11.0168 37.6397C10.8928 37.7531 10.6504 37.7004 10.4858 37.5213C10.3157 37.3426 10.2839 37.1038 10.4098 36.9886C10.5376 36.8754 10.7727 36.9283 10.9432 37.1072C11.1133 37.2879 11.1463 37.5253 11.0166 37.6399L11.0168 37.6397ZM11.8943 39.0791C11.7348 39.1883 11.4742 39.086 11.3133 38.858C11.154 38.6302 11.154 38.3568 11.3168 38.2473C11.4783 38.1377 11.7348 38.2362 11.8979 38.4624C12.057 38.6942 12.057 38.9676 11.894 39.0793L11.8943 39.0791ZM13.3779 40.7463C13.2354 40.9011 12.932 40.8597 12.7097 40.6482C12.4825 40.4415 12.4191 40.1482 12.5621 39.9932C12.7062 39.838 13.0115 39.8817 13.2354 40.0913C13.4611 40.2976 13.5301 40.5931 13.3781 40.7463H13.3779ZM15.2955 41.3092C15.2329 41.5098 14.9405 41.6011 14.6461 41.5159C14.352 41.428 14.1595 41.1928 14.2189 40.99C14.2801 40.7879 14.5737 40.6928 14.8704 40.7841C15.164 40.8716 15.3569 41.105 15.2958 41.3092H15.2955ZM17.4783 41.5478C17.4856 41.7593 17.2358 41.9346 16.9267 41.9384C16.6157 41.9451 16.3643 41.774 16.361 41.5661C16.361 41.3526 16.6051 41.1789 16.9159 41.1739C17.225 41.1679 17.4783 41.3378 17.4783 41.5478ZM19.6222 41.4668C19.6593 41.6731 19.4444 41.885 19.1375 41.9413C18.8357 41.9955 18.5563 41.8683 18.5178 41.6638C18.4803 41.4523 18.6993 41.2407 19.0005 41.1858C19.308 41.1331 19.5831 41.2571 19.6222 41.4668Z" fill="white"/>
</svg>
