<svg width="434" height="434" viewBox="0 0 434 434" fill="none" xmlns="http://www.w3.org/2000/svg">
<path d="M338.776 0.972714C342.243 1.61034 345.702 2.29576 349.179 2.87385C353.837 3.64832 358.509 4.3397 363.754 5.44377C368.619 7.5789 372.88 9.40424 377.202 11.0712C380.017 12.1573 382.922 13.0133 385.787 13.9723C390.441 17.5989 395.092 21.2308 399.751 24.8512C417.455 38.6086 426.749 57.3065 430.938 78.7992C435.466 102.033 432.695 125.559 432.854 148.936C433.284 212.078 432.994 275.224 433.005 338.369C433.007 348.474 431.699 358.293 427.3 367.544C423.162 376.248 420.099 385.639 414.847 393.595C406.811 405.771 395.701 414.873 382.431 421.577C366.407 429.673 349.552 432.941 330.922 433.054C296.173 433.05 262.351 432.991 228.529 433.005C186.712 433.023 144.894 433.102 103.077 433.154C87.3131 433.136 71.8449 430.818 57.4238 424.499C43.1245 418.233 30.9613 409.003 21.3514 396.205C13.3332 385.527 8.1197 373.79 4.33045 361.254C3.10629 357.204 2.76641 352.886 1.95974 347.835C1.98837 339.313 2.07927 331.647 2.46379 324.181C3.69994 328.994 4.86379 333.575 5.53676 338.227C6.7595 346.679 6.73691 355.429 8.92752 363.6C14.7537 385.334 27.603 402.523 46.5764 414.469C64.2039 425.568 84.1424 429.684 104.768 430.053C115.394 430.243 126.038 429.118 136.673 429.123C150.095 429.13 163.516 429.85 176.939 429.933C184.373 429.979 191.813 429.063 199.247 429.1C210.837 429.157 222.422 429.795 234.013 429.93C248.106 430.093 262.203 430.118 276.296 429.964C289.712 429.816 303.319 427.822 316.48 429.493C328.551 431.025 339.874 428.262 351.403 427.252C363.494 426.192 375.28 422.297 385.84 415.397C404.965 402.899 418.641 386.376 424.631 364.133C426.943 355.545 428.283 346.695 430.271 337.612C430.649 335.615 430.97 333.97 430.971 332.325C430.996 255.716 430.999 179.106 430.946 102.497C430.945 100.997 430.243 99.4975 429.604 97.8264C429.11 97.0606 428.66 96.458 428.682 95.8734C429.436 75.9998 422.226 58.5643 411.616 42.4315C406.641 34.8669 400.496 28.142 392.614 23.0972C382.469 16.6039 371.961 11.179 360.299 7.90968C349.177 4.79153 338 5.75861 326.674 5.81364C254.23 6.16562 181.783 6.01787 109.337 5.92192C105.597 5.91697 101.753 4.0326 98.1389 4.48365C87.9113 5.76025 77.4239 6.70179 67.7104 9.84841C58.4359 12.8528 49.8637 18.2137 41.2853 23.0727C38.4341 24.6877 36.6155 28.0556 34.1527 30.4448C31.2081 33.3013 27.3405 35.4875 25.1787 38.8131C20.1798 46.5028 15.8416 54.6369 11.5207 62.7428C10.3367 64.9639 10.058 67.7017 9.54277 70.2387C8.00092 77.8301 6.24664 85.3965 5.15487 93.0553C4.27994 99.1929 4.30751 105.456 3.77996 111.65C3.70944 112.478 2.73035 113.229 2.10229 113.551C1.62857 107.088 1.22456 101.088 0.820557 95.0875C1.03986 92.7563 1.04609 90.3813 1.51348 88.1009C4.27576 74.6237 6.68926 60.9871 13.9577 48.9815C21.1437 37.1121 29.6146 26.4021 41.5293 18.7156C50.9386 12.6454 60.7709 7.49656 71.5225 4.4956C77.0037 2.9657 82.8625 2.79253 88.5482 1.98879C90.154 1.76179 91.7512 1.47365 94.1782 1.06737C176.261 0.938358 257.519 0.955536 338.776 0.972714Z" fill="#08D5AA"/>
<path d="M2.17025 323.981C2.07935 331.647 1.98845 339.313 1.86283 347.441C1.40227 340.657 0.815838 333.415 0.606217 326.162C0.462944 321.204 0.9711 316.231 0.973408 311.265C1.00251 248.715 1.02467 186.165 0.957829 123.616C0.947811 114.242 0.474072 104.87 0.517735 95.292C1.22464 101.087 1.62865 107.087 2.03484 114.014C2.02824 179.634 2.01592 244.329 2.01768 309.023C2.01781 314.009 2.11706 318.995 2.17025 323.981Z" fill="#FCFDFD"/>
<path d="M338.588 0.598975C257.519 0.95592 176.262 0.938743 94.5408 0.883987C95.3023 0.581701 96.527 0.0857948 97.752 0.0852938C177.473 0.0526278 257.194 0.0597945 336.915 0.0706225C337.41 0.0706895 337.905 0.171229 338.588 0.598975Z" fill="#EEFAF7"/>
<path d="M103.338 433.482C144.894 433.102 186.712 433.023 228.529 433.005C262.351 432.991 296.173 433.05 330.459 433.115C329.532 433.437 328.143 433.968 326.753 433.969C253.197 434.009 179.641 434.004 106.085 433.995C105.257 433.995 104.428 433.874 103.338 433.482Z" fill="#EDF9F6"/>
<path d="M385.699 13.632C382.922 13.0134 380.018 12.1575 377.202 11.0713C372.88 9.40437 368.619 7.57904 364.166 5.49707C371.203 7.87934 378.407 10.5855 385.699 13.632Z" fill="#EEF6F6"/>
<path d="M2.46392 324.181C2.11712 318.995 2.01787 314.009 2.01773 309.023C2.01597 244.329 2.0283 179.635 2.1046 114.478C2.73047 113.229 3.70957 112.478 3.78008 111.65C4.30763 105.456 4.28007 99.1931 5.155 93.0554C6.24677 85.3966 8.00104 77.8302 9.5429 70.2389C10.0582 67.7018 10.3368 64.964 11.5208 62.7429C15.8417 54.637 20.1799 46.5029 25.1788 38.8132C27.3407 35.4877 31.2082 33.3014 34.1528 30.4449C36.6156 28.0558 38.4342 24.6879 41.2854 23.0729C49.8638 18.2138 58.436 12.853 67.7105 9.84855C77.424 6.70194 87.9114 5.7604 98.139 4.4838C101.753 4.03274 105.597 5.91711 109.337 5.92207C181.783 6.01801 254.23 6.16577 326.674 5.81378C338.001 5.75875 349.177 4.79167 360.299 7.90983C371.961 11.1792 382.47 16.6041 392.614 23.0974C400.496 28.1422 406.641 34.867 411.616 42.4317C422.227 58.5645 429.436 76 428.682 95.8735C428.66 96.4582 429.11 97.0608 429.635 98.2956C429.954 102.762 429.996 106.587 429.997 110.413C430.023 186.264 430.044 262.114 430.065 337.965C428.283 346.695 426.943 355.545 424.631 364.133C418.641 386.376 404.965 402.9 385.84 415.397C375.28 422.297 363.494 426.192 351.404 427.252C339.874 428.263 328.551 431.025 316.48 429.493C303.319 427.822 289.712 429.816 276.297 429.964C262.203 430.118 248.106 430.093 234.013 429.93C222.423 429.795 210.837 429.157 199.248 429.1C191.813 429.064 184.373 429.98 176.939 429.933C163.516 429.85 150.095 429.13 136.673 429.123C126.038 429.118 115.394 430.243 104.768 430.053C84.1426 429.684 64.204 425.568 46.5765 414.469C27.6031 402.523 14.7538 385.334 8.92765 363.601C6.73704 355.429 6.75962 346.679 5.53689 338.227C4.86392 333.575 3.70007 328.994 2.46392 324.181ZM123.205 302.751C123.205 302.751 123.212 302.564 123.542 303.076C124.059 303.376 124.575 303.677 125.022 303.988C125.022 303.988 125.012 303.918 125.313 304.556C126.59 305 127.867 305.444 129.058 305.916C129.058 305.916 129.031 305.831 129.708 306.313C136.494 306.947 143.36 308.643 149.909 304.786C149.909 304.786 149.812 304.823 150.726 304.905C156.78 303.847 162.854 302.885 168.863 301.613C169.642 301.448 170.082 299.679 170.919 298.985C170.919 298.985 170.693 298.646 171.469 298.743C174.265 297.088 177.062 295.433 179.861 293.851C179.861 293.851 179.788 293.852 180.369 293.686C180.757 293.248 181.146 292.811 181.492 292.515C181.492 292.515 181.571 292.39 182.184 292.403C182.629 292.037 183.075 291.672 183.532 291.487C183.532 291.487 183.351 291.491 183.835 291.251C184.049 290.966 184.263 290.682 184.553 290.491C184.553 290.491 184.529 290.373 185.26 290.479C187.814 288.269 190.367 286.058 193.169 283.229C200.445 273.562 208.686 264.463 214.792 254.105C226.596 234.078 236.914 213.18 248.377 192.943C259.941 172.524 276.344 159.337 301.291 159.848C307.003 159.965 312.194 157.236 314.956 152.287C320.856 141.714 313.152 128.276 301.09 128.138C278.044 127.873 257.624 134.888 240.748 151.129C226.976 164.383 218.169 180.95 209.221 197.477C200.292 213.967 191.68 230.669 181.898 246.647C170.92 264.578 154.788 274.588 133.061 274.077C127.697 273.95 123.576 276.651 119.714 280.187C115.025 283.557 114.444 292.419 118.223 296.609C118.223 296.609 118.636 296.579 118.41 297.345C117.867 300.334 119.491 301.541 122.078 301.916C122.078 301.916 122.057 301.841 122.44 302.229C122.758 302.405 123.075 302.58 123.205 302.751Z" fill="#00DEB2"/>
<path d="M430.271 337.612C430.044 262.114 430.023 186.263 429.997 110.413C429.996 106.587 429.954 102.761 429.899 98.4668C430.243 99.4973 430.945 100.997 430.946 102.497C430.999 179.106 430.996 255.716 430.971 332.325C430.971 333.97 430.649 335.614 430.271 337.612Z" fill="#38C4A9"/>
<path d="M120.138 280.547C123.576 276.651 127.697 273.95 133.061 274.076C154.788 274.588 170.92 264.577 181.897 246.647C191.68 230.668 200.292 213.967 209.221 197.476C218.169 180.95 226.976 164.382 240.748 151.129C257.624 134.888 278.044 127.873 301.09 128.137C313.152 128.275 320.856 141.714 314.956 152.286C312.194 157.235 307.003 159.964 301.291 159.848C276.344 159.337 259.941 172.524 248.376 192.942C236.914 213.18 226.596 234.077 214.791 254.105C208.686 264.462 200.445 273.561 192.711 283.61C189.678 286.118 187.103 288.245 184.529 290.372C184.529 290.372 184.553 290.49 184.261 290.55C183.763 290.904 183.557 291.197 183.351 291.491C183.351 291.491 183.532 291.487 183.263 291.497C182.52 291.802 182.045 292.096 181.571 292.389C181.571 292.389 181.492 292.515 181.244 292.574C180.593 293.04 180.191 293.446 179.788 293.852C179.788 293.852 179.861 293.851 179.513 293.895C176.341 295.508 173.517 297.076 170.693 298.645C170.693 298.645 170.918 298.985 170.428 298.859C163.229 300.763 156.52 302.792 149.812 304.822C149.812 304.822 149.909 304.785 149.428 304.798C142.308 305.15 135.67 305.49 129.031 305.83C129.031 305.83 129.058 305.916 128.9 305.633C127.498 304.872 126.255 304.395 125.012 303.917C125.012 303.917 125.021 303.987 124.907 303.716C124.265 303.15 123.738 302.857 123.212 302.563C123.212 302.563 123.204 302.751 123.154 302.504C122.754 302.118 122.406 301.979 122.057 301.841C122.057 301.841 122.078 301.915 121.96 301.622C120.773 299.745 119.704 298.162 118.635 296.578C118.635 296.578 118.223 296.608 118.293 296.209C116.078 290.388 117.388 285.384 120.138 280.547Z" fill="#FCFFFF"/>
<path d="M150.269 304.864C156.52 302.793 163.229 300.763 170.308 298.693C170.082 299.679 169.642 301.448 168.863 301.613C162.854 302.886 156.78 303.848 150.269 304.864Z" fill="#12CBA3"/>
<path d="M119.927 280.367C117.388 285.384 116.078 290.389 118.503 296.187C114.445 292.42 115.025 283.557 119.927 280.367Z" fill="#12C6A0"/>
<path d="M129.369 306.072C135.67 305.49 142.308 305.15 149.376 304.798C143.36 308.643 136.494 306.947 129.369 306.072Z" fill="#12C6A0"/>
<path d="M184.895 290.426C187.104 288.246 189.678 286.119 192.587 283.92C190.367 286.059 187.814 288.269 184.895 290.426Z" fill="#12CBA3"/>
<path d="M171.081 298.694C173.517 297.076 176.341 295.508 179.511 293.858C177.062 295.433 174.265 297.088 171.081 298.694Z" fill="#12CBA3"/>
<path d="M118.523 296.962C119.705 298.162 120.774 299.746 121.997 301.611C119.491 301.541 117.867 300.334 118.523 296.962Z" fill="#12C6A0"/>
<path d="M125.162 304.236C126.255 304.395 127.498 304.872 128.942 305.619C127.867 305.443 126.59 304.999 125.162 304.236Z" fill="#12C6A0"/>
<path d="M181.877 292.396C182.046 292.096 182.52 291.802 183.258 291.407C183.075 291.672 182.629 292.037 181.877 292.396Z" fill="#12CBA3"/>
<path d="M180.078 293.769C180.191 293.446 180.593 293.041 181.265 292.504C181.146 292.811 180.757 293.249 180.078 293.769Z" fill="#12CBA3"/>
<path d="M123.377 302.819C123.738 302.857 124.265 303.151 124.942 303.711C124.575 303.676 124.059 303.376 123.377 302.819Z" fill="#12C6A0"/>
<path d="M183.593 291.37C183.557 291.197 183.763 290.904 184.222 290.504C184.262 290.682 184.049 290.966 183.593 291.37Z" fill="#12CBA3"/>
<path d="M122.248 302.035C122.406 301.98 122.754 302.118 123.248 302.506C123.075 302.58 122.757 302.404 122.248 302.035Z" fill="#12C6A0"/>
</svg>
