<svg width="51" height="51" viewBox="0 0 51 51" fill="none" xmlns="http://www.w3.org/2000/svg">
<path d="M11.0482 0H39.9518C46.0494 0 51 4.95058 51 11.0482V39.9518C51 46.0494 46.0494 51 39.9518 51H11.0482C4.95058 51 0 46.0494 0 39.9518V11.0482C0 4.95058 4.95058 0 11.0482 0Z" fill="#FFD02F"/>
<path d="M35.4389 6.36938H29.8393L34.5031 14.565L24.2397 6.36938H18.6401L23.7718 16.3913L13.0406 6.36938H7.44096L13.0406 19.1232L7.44096 44.6307H13.0406L23.7718 17.2969L18.6401 44.6307H24.2397L34.5031 15.4857L29.8393 44.6307H35.4389L45.7023 12.7387L35.4389 6.36938Z" fill="#050038"/>
</svg>
