<svg width="36" height="51" viewBox="0 0 36 51" fill="none" xmlns="http://www.w3.org/2000/svg">
<path d="M20.9245 0.544098C22.1814 -0.17973 23.8186 -0.183 25.0744 0.544098C31.3923 4.13581 37.7123 7.7219 44.0291 11.3158C45.2172 11.9891 46.012 13.3194 45.9999 14.6968V36.306C46.0087 37.7403 45.1354 39.1025 43.882 39.7605C37.5848 43.3324 31.2909 46.9087 24.9948 50.4806C23.7119 51.2186 22.0419 51.1618 20.7991 50.3633C18.9112 49.2622 17.02 48.1666 15.132 47.0666C14.7462 46.8352 14.3112 46.651 14.0388 46.2746C14.2796 45.948 14.7102 45.9073 15.0601 45.7648C15.8482 45.5126 16.5719 45.108 17.2959 44.7153C17.479 44.5892 17.7025 44.6375 17.878 44.7503C19.4923 45.6816 21.0924 46.6399 22.7122 47.5623C23.0578 47.763 23.4077 47.4965 23.703 47.3308C29.8825 43.8171 36.0695 40.3165 42.2479 36.8016C42.4768 36.6908 42.6034 36.4464 42.5848 36.1941C42.5891 29.0657 42.5859 21.936 42.587 14.8076C42.6131 14.5213 42.4485 14.2582 42.1912 14.141C35.9159 10.5854 29.6438 7.02441 23.3696 3.46793C23.2609 3.39274 23.1321 3.3524 23.0002 3.3522C22.8683 3.35201 22.7394 3.39197 22.6304 3.46684C16.3562 7.02441 10.0852 10.5887 3.81096 14.1441C3.55459 14.2614 3.38254 14.5203 3.41305 14.8076C3.41413 21.936 3.41305 29.0657 3.41305 36.1952C3.40217 36.3183 3.42904 36.4417 3.49005 36.549C3.55106 36.6563 3.64327 36.7422 3.75427 36.7951C5.42858 37.7503 7.10506 38.6989 8.78045 39.6508C9.72431 40.1619 10.8832 40.4656 11.9231 40.074C12.8408 39.7429 13.484 38.8008 13.4665 37.8204C13.4752 30.7337 13.4622 23.6458 13.473 16.5601C13.4501 16.2455 13.7467 15.9855 14.0507 16.0151C14.8552 16.0097 15.6608 16.0042 16.4652 16.0173C16.801 16.0097 17.0321 16.3484 16.9906 16.6654C16.9874 23.7971 16.9993 30.9289 16.9852 38.0606C16.9874 39.9612 16.2112 42.0294 14.4638 42.9594C12.3111 44.0813 9.65029 43.8434 7.52355 42.7676C5.68242 41.843 3.92542 40.7519 2.11697 39.7614C0.86024 39.107 -0.00869099 37.7394 0.000155389 36.3061V14.6968C-0.0130239 13.2909 0.8133 11.9365 2.03843 11.2729C8.33453 7.6981 14.6295 4.12056 20.9245 0.544098Z" fill="#8CC84B"/>
<path d="M26.4172 15.5128C29.1632 15.335 32.1029 15.4075 34.574 16.7685C36.4871 17.8115 37.5478 20.0004 37.5815 22.1388C37.5281 22.4272 37.2284 22.5864 36.9547 22.5666C36.158 22.5655 35.3611 22.5775 34.5644 22.5611C34.2264 22.5742 34.03 22.2607 33.9876 21.9601C33.7586 20.9369 33.204 19.9235 32.2468 19.43C30.7774 18.6899 29.0737 18.7271 27.4714 18.7425C26.3017 18.805 25.0439 18.9069 24.0529 19.599C23.2921 20.1232 23.061 21.1814 23.3326 22.0336C23.5886 22.6456 24.2907 22.843 24.8652 23.025C28.1744 23.8958 31.6812 23.8091 34.9273 24.9551C36.2712 25.4223 37.5859 26.3305 38.0459 27.7462C38.6476 29.6435 38.3839 31.9115 37.0421 33.4347C35.954 34.6882 34.3692 35.3704 32.7886 35.741C30.6859 36.2127 28.5037 36.2247 26.3683 36.0152C24.3604 35.7849 22.2708 35.2542 20.7207 33.8777C19.3952 32.7198 18.7478 30.9156 18.8121 29.1742C18.8274 28.8801 19.1184 28.6751 19.3985 28.6992C20.2008 28.6927 21.0031 28.6905 21.8054 28.7003C22.1258 28.6772 22.3634 28.9559 22.3799 29.2597C22.5279 30.2346 22.892 31.2578 23.737 31.8357C25.3676 32.8941 27.4136 32.8217 29.2808 32.8513C30.8276 32.7823 32.564 32.7614 33.8263 31.7328C34.4924 31.1461 34.6897 30.1645 34.5097 29.3201C34.3147 28.6071 33.5734 28.2749 32.9368 28.0577C29.67 27.018 26.124 27.3952 22.8888 26.2195C21.5754 25.7525 20.3053 24.8696 19.8007 23.512C19.0966 21.5906 19.4192 19.2141 20.9016 17.7422C22.347 16.2782 24.4335 15.7144 26.4172 15.5126V15.5128Z" fill="#8CC84B"/>
</svg>
