<svg width="22" height="20" viewBox="0 0 22 20" fill="none" xmlns="http://www.w3.org/2000/svg">
<path d="M0.0229373 19.9998H4.30785V5.71783H0.0229373V19.9998ZM16.7163 5.22312C14.6367 5.22312 12.776 5.98255 11.4561 7.65881V5.67086H7.15546V20H11.4561V12.2512C11.4561 10.6136 12.9564 9.016 14.8356 9.016C16.7149 9.016 17.1783 10.6136 17.1783 12.2111V19.9986H21.4632V11.8922C21.4631 6.2614 18.7972 5.22312 16.7163 5.22312ZM2.14537 4.29057C3.32959 4.29057 4.29073 3.32943 4.29073 2.14521C4.29073 0.960984 3.32959 0 2.14537 0C0.961141 0 0 0.961141 0 2.14536C0 3.32959 0.961141 4.29057 2.14537 4.29057Z" fill="white"/>
</svg>
