<svg width="19" height="18" viewBox="0 0 19 18" fill="none" xmlns="http://www.w3.org/2000/svg">
<path d="M4.01258 7.79C5.45258 10.62 7.77258 12.93 10.6026 14.38L12.8026 12.18C13.0726 11.91 13.4726 11.82 13.8226 11.94C14.9426 12.31 16.1526 12.51 17.3926 12.51C17.9426 12.51 18.3926 12.96 18.3926 13.51V17C18.3926 17.55 17.9426 18 17.3926 18C8.00258 18 0.392578 10.39 0.392578 1C0.392578 0.45 0.842578 0 1.39258 0H4.89258C5.44258 0 5.89258 0.45 5.89258 1C5.89258 2.25 6.09258 3.45 6.46258 4.57C6.57258 4.92 6.49258 5.31 6.21258 5.59L4.01258 7.79Z" fill="white"/>
</svg>
