<svg width="21" height="20" viewBox="0 0 21 20" fill="none" xmlns="http://www.w3.org/2000/svg">
<path d="M10.4652 1.8016C13.1372 1.8016 13.4539 1.8134 14.504 1.85968C15.4815 1.90325 16.0089 2.06662 16.361 2.20457C16.8257 2.38337 17.1615 2.60211 17.5091 2.94972C17.8613 3.30187 18.0755 3.63405 18.2561 4.09875C18.3922 4.44999 18.5556 4.98185 18.5992 5.9548C18.6464 7.00944 18.6581 7.32529 18.6581 9.99365C18.6581 12.6665 18.6464 12.9833 18.5992 14.0343C18.5565 15.0109 18.3922 15.5382 18.2561 15.8895C18.0755 16.3551 17.8567 16.6909 17.5091 17.0385C17.1873 17.3702 16.7949 17.6252 16.361 17.7845C16.0089 17.9216 15.4779 18.0859 14.5049 18.1294C13.4503 18.1748 13.1336 18.1875 10.4652 18.1875C7.79229 18.1875 7.47645 18.1757 6.42544 18.1285C5.44886 18.0859 4.92154 17.9216 4.56939 17.7845C4.13543 17.6249 3.74279 17.3699 3.42036 17.0385C3.08859 16.7167 2.8336 16.3242 2.67431 15.8904C2.53817 15.5382 2.37389 15.0073 2.33032 14.0343C2.28404 12.9788 2.27224 12.6629 2.27224 9.99455C2.27224 7.32166 2.28404 7.00581 2.33032 5.9548C2.37389 4.97731 2.53817 4.44999 2.67521 4.09875C2.85401 3.63405 3.07275 3.29733 3.42036 2.94972C3.74243 2.61784 4.13518 2.36284 4.56939 2.20367C4.92154 2.06753 5.45249 1.90325 6.42544 1.85968C7.47645 1.8134 7.7932 1.8016 10.4652 1.8016ZM10.4652 0C7.74964 0 7.41019 0.0117989 6.34285 0.0589944C5.28095 0.10619 4.55033 0.27682 3.91682 0.523688C3.2482 0.774757 2.64282 1.16947 2.14336 1.67998C1.63377 2.17878 1.23916 2.78277 0.987067 3.44981C0.740199 4.08695 0.569569 4.81394 0.521466 5.87675C0.475178 6.94772 0.463379 7.28717 0.463379 10.0018C0.463379 12.7174 0.475178 13.0577 0.521466 14.1242C0.568661 15.1861 0.740199 15.9176 0.987067 16.5502C1.23811 17.2188 1.63282 17.8242 2.14336 18.3237C2.64214 18.8324 3.24622 19.2258 3.91319 19.4763C4.55033 19.7223 5.27641 19.8938 6.33922 19.941C7.40565 19.9882 7.74601 20 10.4616 20C13.1762 20 13.5166 19.9882 14.583 19.941C15.6449 19.8947 16.3764 19.7232 17.009 19.4763C17.6759 19.2256 18.2799 18.8322 18.7789 18.3237C19.2874 17.8247 19.6808 17.2207 19.9315 16.5538C20.1775 15.9176 20.349 15.1906 20.3962 14.1278C20.4434 13.0614 20.4552 12.721 20.4552 10.0064C20.4552 7.2908 20.4434 6.95044 20.3962 5.88401C20.3499 4.82211 20.1784 4.09058 19.9315 3.45798C19.6905 2.78583 19.2991 2.17767 18.787 1.67998C18.2881 1.1714 17.6841 0.778005 17.0172 0.527319C16.3801 0.282265 15.6522 0.10982 14.5903 0.0626248C13.5193 0.0117989 13.1807 0 10.4652 0Z" fill="white"/>
<path d="M10.4654 4.86458C9.10313 4.86507 7.79679 5.40644 6.83351 6.36972C5.87023 7.333 5.32885 8.63935 5.32837 10.0016C5.32861 11.3641 5.86988 12.6707 6.83319 13.6341C7.79649 14.5976 9.10298 15.1391 10.4654 15.1396C11.8277 15.1391 13.134 14.5977 14.0973 13.6344C15.0606 12.6712 15.602 11.3648 15.6025 10.0025C15.6022 8.6401 15.061 7.33352 14.0976 6.37004C13.1343 5.40657 11.8279 4.86507 10.4654 4.86458ZM10.4654 13.3344C10.0277 13.3343 9.59428 13.248 9.1899 13.0805C8.78552 12.9129 8.41811 12.6673 8.10864 12.3578C7.48363 11.7326 7.13257 10.8847 7.13269 10.0007C7.13281 9.11671 7.4841 8.26895 8.10928 7.64394C8.73445 7.01893 9.58231 6.66788 10.4663 6.668C11.3503 6.66812 12.1981 7.01941 12.8231 7.64458C13.4481 8.26976 13.7992 9.11762 13.7991 10.0016C13.7989 10.8856 13.4476 11.7334 12.8225 12.3584C12.1973 12.9834 11.3494 13.3345 10.4654 13.3344ZM17.0047 4.66128C17.0047 4.9795 16.8783 5.28469 16.6533 5.50971C16.4283 5.73472 16.1231 5.86114 15.8049 5.86114C15.4866 5.86114 15.1815 5.73472 14.9564 5.50971C14.7314 5.28469 14.605 4.9795 14.605 4.66128C14.605 4.34306 14.7314 4.03787 14.9564 3.81286C15.1815 3.58784 15.4866 3.46143 15.8049 3.46143C16.1231 3.46143 16.4283 3.58784 16.6533 3.81286C16.8783 4.03787 17.0047 4.34306 17.0047 4.66128Z" fill="white"/>
</svg>
