<svg width="25" height="20" viewBox="0 0 25 20" fill="none" xmlns="http://www.w3.org/2000/svg">
<path d="M8.32689 3.7356V19.2088C8.32689 19.4291 8.2668 19.6194 8.16665 19.7697C8.05648 19.9199 7.89624 20 7.68592 20C7.5357 20 7.39549 19.9599 7.25528 19.8898L1.11607 16.8152C0.925784 16.7251 0.775559 16.5749 0.645364 16.3746C0.515168 16.1743 0.455078 15.9639 0.455078 15.7636V0.731097C0.455078 0.550826 0.495138 0.400601 0.585273 0.280421C0.675409 0.16024 0.795589 0.0901352 0.965844 0.0901352C1.08602 0.0901352 1.28632 0.16024 1.54672 0.290436L8.28683 3.6655C8.31687 3.70556 8.32689 3.72559 8.32689 3.7356ZM9.17816 5.07762L16.2187 16.5048L9.17816 12.9995V5.07762ZM24.0905 5.30796V19.2088C24.0905 19.4291 24.0304 19.6094 23.9002 19.7396C23.7801 19.8798 23.6098 19.9399 23.3995 19.9399C23.1892 19.9399 22.9789 19.8798 22.7786 19.7697L16.9598 16.8653L24.0905 5.30796ZM24.0505 3.72559C24.0505 3.75563 22.9188 5.5984 20.6654 9.25388C18.412 12.9194 17.09 15.0626 16.6994 15.6835L11.5517 7.32098L15.8281 0.370556C15.9784 0.12018 16.2087 0 16.5092 0C16.6293 0 16.7495 0.030045 16.8497 0.0801201L23.9904 3.64547C24.0304 3.6655 24.0505 3.69554 24.0505 3.72559Z" fill="white"/>
</svg>
