<svg width="21" height="20" viewBox="0 0 21 20" fill="none" xmlns="http://www.w3.org/2000/svg">
<path d="M0.0905762 10C0.0905762 8.18666 0.537256 6.51334 1.43058 4.98C2.32392 3.44666 3.53726 2.23334 5.07058 1.34C6.60392 0.44666 8.27726 0 10.0906 0C11.9039 0 13.5773 0.44666 15.1106 1.34C16.6439 2.23334 17.8573 3.44666 18.7506 4.98C19.6439 6.51334 20.0906 8.18666 20.0906 10C20.0906 11.8133 19.6439 13.4867 18.7506 15.02C17.8573 16.5533 16.6439 17.7667 15.1106 18.66C13.5773 19.5533 11.9039 20 10.0906 20C8.27726 20 6.60392 19.5533 5.07058 18.66C3.53726 17.7667 2.32392 16.5533 1.43058 15.02C0.537256 13.4867 0.0905762 11.8133 0.0905762 10ZM1.75058 10C1.75058 12.08 2.45058 13.9133 3.85058 15.5C4.49058 14.2467 5.50392 13.0533 6.89058 11.92C8.27726 10.7867 9.63058 10.0733 10.9506 9.78C10.7506 9.31334 10.5573 8.89334 10.3706 8.52C8.07726 9.25334 5.59726 9.62 2.93058 9.62C2.41058 9.62 2.02392 9.61334 1.77058 9.6C1.77058 9.65334 1.76726 9.72 1.76058 9.8C1.75392 9.88 1.75058 9.94666 1.75058 10ZM2.01058 7.94C2.30392 7.96666 2.73726 7.98 3.31058 7.98C5.53726 7.98 7.65058 7.68 9.65058 7.08C8.63726 5.28 7.52392 3.78 6.31058 2.58C5.25726 3.11334 4.35392 3.85334 3.60058 4.8C2.84726 5.74666 2.31726 6.79334 2.01058 7.94ZM4.99058 16.58C6.49726 17.7533 8.19726 18.34 10.0906 18.34C11.0773 18.34 12.0573 18.1533 13.0306 17.78C12.7639 15.5 12.2439 13.2933 11.4706 11.16C10.2439 11.4267 9.00726 12.1 7.76058 13.18C6.51392 14.26 5.59058 15.3933 4.99058 16.58ZM8.05058 1.94C9.22392 3.15334 10.3106 4.66666 11.3106 6.48C13.1239 5.72 14.4906 4.75334 15.4106 3.58C13.8639 2.3 12.0906 1.66 10.0906 1.66C9.41058 1.66 8.73058 1.75334 8.05058 1.94ZM12.0306 7.9C12.2306 8.32666 12.4573 8.86666 12.7106 9.52C13.6973 9.42666 14.7706 9.38 15.9306 9.38C16.7573 9.38 17.5773 9.4 18.3906 9.44C18.2839 7.62666 17.6306 6.01334 16.4306 4.6C15.5639 5.89334 14.0973 6.99334 12.0306 7.9ZM13.2106 10.92C13.8906 12.8933 14.3506 14.92 14.5906 17C15.6439 16.32 16.5039 15.4467 17.1706 14.38C17.8373 13.3133 18.2373 12.16 18.3706 10.92C17.3973 10.8533 16.5106 10.82 15.7106 10.82C14.9773 10.82 14.1439 10.8533 13.2106 10.92Z" fill="white"/>
</svg>
