<svg width="29" height="18" viewBox="0 0 29 18" fill="none" xmlns="http://www.w3.org/2000/svg">
<path d="M11.7129 8.34456C11.7129 8.34456 14.4372 8.13759 14.4372 4.87789C14.4372 1.62083 12.5895 0.015277 9.76538 0.015277L0.0905762 0V17.9996H9.99039C9.99039 17.9996 14.9403 18.1562 14.9403 12.5997C14.9403 12.5997 15.3038 8.34456 11.7129 8.34456ZM3.69052 2.69991H8.6404C8.6404 2.69991 10.3342 2.72783 10.3342 4.92378C10.3342 7.19983 8.6404 7.19983 8.6404 7.19983H3.69052V2.69991ZM9.09035 15.2996H3.69052V9.89975H9.09035C9.09035 9.89975 11.7903 9.92766 11.7903 12.5997C11.7903 15.2717 9.4792 15.2996 9.09035 15.2996Z" fill="white"/>
<path d="M22.5904 4.50024C15.8288 4.50024 15.8405 11.2501 15.8405 11.2501C15.8405 11.2501 15.3906 17.9999 22.5904 17.9999C22.5904 17.9999 28.8902 17.9999 28.8902 12.6H25.2903C25.2903 12.6 25.2903 15.3 22.5904 15.3C22.5904 15.3 19.8904 15.3 19.8904 11.7001H28.8902C28.8902 9.90007 28.8902 4.50024 22.5904 4.50024ZM19.8904 9.90007C19.8904 9.90007 19.8311 7.20016 22.5904 7.20016C25.3488 7.20016 25.2903 9.90007 25.2903 9.90007H19.8904Z" fill="white"/>
<path d="M26.1906 1.80005H18.9907V3.60006H26.1906V1.80005Z" fill="white"/>
</svg>
