<svg width="22" height="20" viewBox="0 0 22 20" fill="none" xmlns="http://www.w3.org/2000/svg">
<path fill-rule="evenodd" clip-rule="evenodd" d="M11.1433 0C5.4814 0 0.890137 4.5902 0.890137 10.2531C0.890137 14.7831 3.82798 18.6264 7.9019 19.9822C8.41428 20.0771 8.60242 19.7598 8.60242 19.4889C8.60242 19.2446 8.59289 18.4368 8.58851 17.5801C5.7361 18.2003 5.1342 16.3703 5.1342 16.3703C4.66778 15.1854 3.99575 14.8701 3.99575 14.8701C3.06547 14.2337 4.06588 14.2468 4.06588 14.2468C5.09545 14.3191 5.63758 15.3035 5.63758 15.3035C6.55207 16.8708 8.03618 16.4177 8.62128 16.1557C8.7135 15.4932 8.97902 15.0407 9.27227 14.7846C6.99486 14.5256 4.60088 13.6462 4.60088 9.71747C4.60088 8.59824 5.00141 7.68359 5.65731 6.96556C5.55085 6.70711 5.19989 5.6643 5.75679 4.25205C5.75679 4.25205 6.61782 3.97661 8.57695 5.30318C9.39486 5.07601 10.272 4.96205 11.1433 4.958C12.0147 4.96185 12.8925 5.07597 13.7119 5.30318C15.6689 3.97661 16.5287 4.25205 16.5287 4.25205C17.0868 5.6643 16.7358 6.70711 16.6294 6.96556C17.2868 7.68359 17.6844 8.59824 17.6844 9.71747C17.6844 13.6557 15.2858 14.5227 13.0027 14.7765C13.3705 15.0947 13.6981 15.7187 13.6981 16.6752C13.6981 18.0472 13.6864 19.1513 13.6864 19.4889C13.6864 19.762 13.8708 20.0817 14.3905 19.981C18.4624 18.6237 21.3965 14.7817 21.3965 10.2532C21.3965 4.59015 16.8059 0 11.1433 0Z" fill="white"/>
<path d="M4.77365 14.7211C4.75103 14.7722 4.67089 14.7875 4.59793 14.7524C4.52333 14.7189 4.4818 14.6495 4.50586 14.5984C4.528 14.546 4.60809 14.5315 4.68249 14.5664C4.75685 14.5999 4.79925 14.67 4.77365 14.7211ZM5.189 15.1844C5.1401 15.2297 5.04433 15.2086 4.97964 15.137C4.91241 15.0655 4.89999 14.9698 4.94961 14.9239C5.00005 14.8786 5.09274 14.8998 5.15979 14.9713C5.22702 15.0436 5.24012 15.1386 5.189 15.1844ZM5.59324 15.7748C5.53043 15.8186 5.42753 15.7777 5.364 15.6865C5.30119 15.5952 5.30119 15.4858 5.36544 15.4421C5.42897 15.3983 5.53033 15.4377 5.59468 15.5281C5.65735 15.6208 5.65735 15.7302 5.59324 15.7748ZM6.14701 16.3454C6.09084 16.4073 5.97115 16.3907 5.8835 16.3062C5.79389 16.2235 5.76896 16.1061 5.82512 16.0441C5.88216 15.9821 6.00253 15.9995 6.09079 16.0834C6.17983 16.1659 6.20679 16.2841 6.14701 16.3454ZM6.9111 16.6766C6.88608 16.757 6.77105 16.7933 6.65487 16.7591C6.53888 16.724 6.46302 16.6302 6.48641 16.549C6.51058 16.468 6.62637 16.4301 6.74333 16.4666C6.85912 16.5016 6.93522 16.5949 6.9111 16.6766ZM7.75023 16.738C7.75312 16.8226 7.65465 16.8927 7.53274 16.8942C7.41015 16.8971 7.31086 16.8285 7.30947 16.7453C7.30947 16.6599 7.40592 16.5907 7.52831 16.5884C7.65022 16.586 7.75023 16.6541 7.75023 16.738ZM8.53103 16.6052C8.54561 16.6875 8.4609 16.7722 8.33986 16.7948C8.22084 16.8167 8.11062 16.7656 8.09551 16.684C8.08073 16.5994 8.16684 16.5147 8.28586 16.4928C8.4071 16.4718 8.51558 16.5213 8.53103 16.6052Z" fill="white"/>
</svg>
