<svg width="27" height="20" viewBox="0 0 27 20" fill="none" xmlns="http://www.w3.org/2000/svg">
<path d="M26.8903 9.91426C26.8903 9.84711 26.8903 9.76917 26.8868 9.68044L26.8718 8.85185C26.8503 8.0106 26.8066 7.1701 26.7407 6.33132C26.6514 5.21974 26.5203 4.29402 26.3417 3.59854C26.1531 2.87275 25.7836 2.21083 25.2701 1.6789C24.7566 1.14696 24.1171 0.763625 23.4154 0.56718C22.5734 0.332154 20.9241 0.187062 18.6021 0.0983272C17.0652 0.0394987 15.5274 0.00671856 13.9894 0H13.1138C12.7681 0.00359734 12.3842 0.00599556 11.9702 0.0119911C10.7883 0.0275796 9.60641 0.0551592 8.50109 0.0983272C6.17909 0.190659 4.52633 0.335752 3.6866 0.565981C2.98491 0.762057 2.34536 1.14529 1.832 1.6773C1.31864 2.20931 0.949479 2.87142 0.761494 3.59734C0.580559 4.29282 0.451817 5.21974 0.36251 6.33132C0.29725 7.17015 0.253548 8.01062 0.231448 8.85185C0.222169 9.15043 0.21985 9.43102 0.21637 9.68044C0.21637 9.76917 0.212891 9.84711 0.212891 9.91426V10.0869C0.212891 10.1541 0.212891 10.232 0.21637 10.3208L0.231448 11.1494C0.255805 12.0079 0.296399 12.8641 0.36251 13.6699C0.451817 14.7815 0.582879 15.7072 0.761494 16.4027C0.949473 17.1288 1.31877 17.791 1.83236 18.3231C2.34596 18.8551 2.98581 19.2382 3.68776 19.434C4.52749 19.6678 6.18025 19.8129 8.50225 19.9017C10.0392 19.9606 11.5769 19.9933 13.1149 20H13.9906C14.3362 19.9964 14.7201 19.994 15.1342 19.988C16.3161 19.9724 17.4979 19.9448 18.6033 19.9017C20.9253 19.8093 22.578 19.6642 23.4178 19.434C24.12 19.2389 24.7602 18.856 25.2739 18.3239C25.7876 17.7917 26.1567 17.1291 26.344 16.4027C26.5261 15.7072 26.6537 14.7803 26.743 13.6699C26.808 12.8629 26.8497 12.0079 26.8741 11.1494C26.8834 10.8508 26.8857 10.5702 26.8892 10.3208C26.8892 10.232 26.8926 10.1541 26.8926 10.0869V9.91426H26.8903ZM24.7469 10.0737C24.7469 10.1385 24.7469 10.2092 24.7435 10.292L24.7284 11.0834C24.709 11.8839 24.6672 12.6836 24.6031 13.4816C24.5231 14.4733 24.4094 15.2851 24.2702 15.8307C24.1795 16.1808 24.0013 16.5002 23.7536 16.7567C23.5058 17.0133 23.1973 17.198 22.8587 17.2924C22.2336 17.4651 20.6585 17.603 18.5174 17.6869C17.0049 17.745 15.4915 17.777 13.9778 17.7828H13.1265L12.0015 17.7732C10.863 17.7592 9.72471 17.7305 8.58692 17.6869C6.44586 17.6006 4.86848 17.4651 4.24565 17.2924C3.90748 17.1972 3.59928 17.0122 3.35166 16.7558C3.10404 16.4994 2.92562 16.1805 2.83412 15.8307C2.69378 15.2863 2.58128 14.4733 2.50125 13.4816C2.43889 12.6835 2.39712 11.8838 2.37599 11.0834C2.36671 10.7968 2.36439 10.5294 2.36091 10.292C2.36091 10.2092 2.35743 10.1349 2.35743 10.0737V9.92626C2.35743 9.8615 2.35743 9.79076 2.36091 9.70802L2.37599 8.9166C2.39686 8.09761 2.43862 7.27861 2.50125 6.51838C2.58128 5.52671 2.69494 4.71491 2.83412 4.16932C2.92488 3.81916 3.10305 3.49981 3.35078 3.24327C3.59851 2.98673 3.90711 2.802 4.24565 2.7076C4.8708 2.53492 6.44586 2.39703 8.58692 2.31309C10.0995 2.25496 11.6129 2.22298 13.1265 2.21716H13.9778L15.1029 2.22675C16.2674 2.24234 17.4307 2.26992 18.5174 2.31309C20.6585 2.39942 22.2359 2.53492 22.8587 2.7076C23.543 2.89826 24.0858 3.45824 24.2702 4.16932C24.4106 4.71371 24.5231 5.52671 24.6031 6.51838C24.6657 7.27861 24.704 8.09761 24.7284 8.9166C24.7377 9.20319 24.74 9.47059 24.7435 9.70802C24.7435 9.79076 24.7469 9.8651 24.7469 9.92626V10.0737ZM10.902 14.1243L17.8088 9.96942L10.902 5.87565V14.1243Z" fill="white"/>
</svg>
